<svg xmlns="http://www.w3.org/2000/svg" xmlns:xlink="http://www.w3.org/1999/xlink" viewBox="0 0 108 66.46"><defs><style>.cls-1{fill:url(#linear-gradient);}.cls-2{isolation:isolate;}.cls-3{clip-path:url(#clip-path);}.cls-4{fill:url(#linear-gradient-3);}.cls-5{fill:url(#linear-gradient-4);}.cls-6{fill:url(#linear-gradient-5);}.cls-7{fill:url(#linear-gradient-6);}.cls-8{fill:url(#linear-gradient-7);}.cls-9{fill:url(#linear-gradient-8);}.cls-10{fill:url(#linear-gradient-9);}.cls-11{fill:url(#linear-gradient-10);}.cls-12{fill:url(#linear-gradient-11);}.cls-13{fill:url(#linear-gradient-12);}.cls-14{fill:url(#linear-gradient-13);}.cls-15{fill:url(#linear-gradient-14);}.cls-16{fill:url(#linear-gradient-15);}.cls-17{fill:url(#linear-gradient-16);}.cls-18{fill:url(#linear-gradient-17);}.cls-19{fill:url(#linear-gradient-18);}.cls-20{fill:url(#linear-gradient-19);}.cls-21{fill:url(#linear-gradient-20);}.cls-22{fill:url(#linear-gradient-21);}.cls-23{fill:url(#linear-gradient-22);}.cls-24{fill:url(#linear-gradient-23);}.cls-25{fill:url(#linear-gradient-24);}.cls-26{fill:url(#linear-gradient-25);}.cls-27{fill:url(#linear-gradient-26);}.cls-28{fill:url(#linear-gradient-27);}.cls-29{fill:url(#linear-gradient-28);}.cls-30{fill:url(#linear-gradient-29);}.cls-31{fill:url(#linear-gradient-30);}.cls-32{fill:url(#linear-gradient-31);}.cls-33{fill:url(#linear-gradient-32);}.cls-34{fill:url(#linear-gradient-33);}.cls-35{fill:url(#linear-gradient-34);}.cls-36{fill:url(#linear-gradient-35);}.cls-37{fill:url(#linear-gradient-36);}.cls-38{fill:url(#linear-gradient-37);}.cls-39{fill:url(#linear-gradient-38);}.cls-40{fill:url(#linear-gradient-39);}.cls-41{fill:url(#linear-gradient-40);}.cls-42{fill:url(#linear-gradient-41);}.cls-43{fill:url(#linear-gradient-42);}.cls-44{fill:url(#linear-gradient-43);}.cls-45{fill:url(#linear-gradient-44);}.cls-46{fill:url(#linear-gradient-45);}.cls-47{fill:url(#linear-gradient-46);}.cls-48{fill:url(#linear-gradient-47);}.cls-49{fill:url(#linear-gradient-48);}.cls-50{fill:url(#linear-gradient-49);}.cls-51{fill:url(#linear-gradient-50);}.cls-52{fill:url(#linear-gradient-51);}.cls-53{fill:url(#linear-gradient-52);}.cls-54{fill:url(#linear-gradient-53);}.cls-55{fill:url(#linear-gradient-54);}.cls-56{fill:url(#linear-gradient-55);}.cls-57{fill:url(#linear-gradient-56);}.cls-58{fill:url(#linear-gradient-57);}.cls-59{fill:url(#linear-gradient-58);}.cls-60{fill:url(#linear-gradient-59);}.cls-61{fill:url(#linear-gradient-60);}.cls-62{fill:url(#linear-gradient-61);}.cls-63{fill:url(#linear-gradient-62);}.cls-64{fill:url(#linear-gradient-63);}.cls-65{fill:url(#linear-gradient-64);}.cls-66{fill:url(#linear-gradient-65);}.cls-67{fill:url(#linear-gradient-66);}.cls-68{fill:url(#linear-gradient-67);}.cls-69{fill:url(#linear-gradient-68);}.cls-70{fill:url(#linear-gradient-69);}.cls-71{fill:url(#linear-gradient-70);}.cls-72{fill:url(#linear-gradient-71);}.cls-73{fill:url(#linear-gradient-72);}.cls-74{fill:url(#linear-gradient-73);}.cls-75{fill:url(#linear-gradient-74);}.cls-76{fill:url(#linear-gradient-75);}.cls-77{fill:url(#linear-gradient-76);}.cls-78{fill:url(#linear-gradient-77);}.cls-79{fill:url(#linear-gradient-78);}.cls-80{fill:url(#linear-gradient-79);}.cls-81{fill:url(#linear-gradient-80);}.cls-82{fill:url(#linear-gradient-81);}.cls-83{fill:url(#linear-gradient-82);}.cls-84{fill:url(#linear-gradient-83);}.cls-85{fill:url(#linear-gradient-84);}.cls-86{fill:url(#linear-gradient-85);}.cls-87{fill:url(#linear-gradient-86);}.cls-88{fill:url(#linear-gradient-87);}.cls-89{fill:url(#linear-gradient-88);}.cls-90{fill:url(#linear-gradient-89);}.cls-91{fill:url(#linear-gradient-90);}.cls-92{fill:url(#linear-gradient-91);}.cls-93{fill:url(#linear-gradient-92);}.cls-94{fill:url(#linear-gradient-93);}.cls-95{fill:url(#linear-gradient-94);}.cls-96{fill:url(#linear-gradient-95);}.cls-97{fill:url(#linear-gradient-96);}.cls-98{fill:url(#linear-gradient-97);}.cls-99{fill:url(#linear-gradient-98);}.cls-100{fill:url(#linear-gradient-99);}.cls-101{fill:url(#linear-gradient-100);}.cls-102{fill:url(#linear-gradient-101);}.cls-103{fill:url(#linear-gradient-102);}.cls-104{fill:url(#linear-gradient-103);}.cls-105{fill:url(#linear-gradient-104);}.cls-106{fill:url(#linear-gradient-105);}.cls-107,.cls-108{mix-blend-mode:color-dodge;}.cls-107{fill:url(#linear-gradient-106);}.cls-109{fill:url(#linear-gradient-107);}.cls-110{fill:url(#linear-gradient-108);}.cls-111{fill:url(#linear-gradient-109);}.cls-112{fill:url(#linear-gradient-110);}.cls-113{fill:url(#linear-gradient-111);}.cls-114{fill:url(#linear-gradient-112);}</style><linearGradient id="linear-gradient" x1="96.23" y1="-9" x2="8.5" y2="78.73" gradientUnits="userSpaceOnUse"><stop offset="0" stop-color="#ffeb1c"/><stop offset="0.32" stop-color="#fed319"/><stop offset="0.99" stop-color="#fc9612"/><stop offset="1" stop-color="#fc9512"/></linearGradient><clipPath id="clip-path"><rect class="cls-1" width="108" height="66.46"/></clipPath><linearGradient id="linear-gradient-3" x1="86.52" y1="2.09" x2="25.48" y2="63.14" gradientUnits="userSpaceOnUse"><stop offset="0" stop-color="#00eebf"/><stop offset="1" stop-color="#ff6e2b"/></linearGradient><linearGradient id="linear-gradient-4" x1="86.32" y1="2.23" x2="25.55" y2="63" gradientUnits="userSpaceOnUse"><stop offset="0" stop-color="#02ebc0"/><stop offset="1" stop-color="#ff6e2a"/></linearGradient><linearGradient id="linear-gradient-5" x1="86.1" y1="2.38" x2="25.62" y2="62.86" gradientUnits="userSpaceOnUse"><stop offset="0" stop-color="#04e9c2"/><stop offset="1" stop-color="#ff6f29"/></linearGradient><linearGradient id="linear-gradient-6" x1="85.87" y1="2.53" x2="25.68" y2="62.71" gradientUnits="userSpaceOnUse"><stop offset="0" stop-color="#06e6c3"/><stop offset="1" stop-color="#fe6f28"/></linearGradient><linearGradient id="linear-gradient-7" x1="85.66" y1="2.69" x2="25.76" y2="62.58" gradientUnits="userSpaceOnUse"><stop offset="0" stop-color="#08e3c4"/><stop offset="1" stop-color="#fe6f28"/></linearGradient><linearGradient id="linear-gradient-8" x1="85.44" y1="2.85" x2="25.84" y2="62.45" gradientUnits="userSpaceOnUse"><stop offset="0" stop-color="#0ae1c5"/><stop offset="1" stop-color="#fe7027"/></linearGradient><linearGradient id="linear-gradient-9" x1="85.22" y1="3.01" x2="25.92" y2="62.32" gradientUnits="userSpaceOnUse"><stop offset="0" stop-color="#0cdec7"/><stop offset="0.85" stop-color="#d9813f"/><stop offset="1" stop-color="#fe7026"/></linearGradient><linearGradient id="linear-gradient-10" x1="85.02" y1="3.18" x2="26" y2="62.19" gradientUnits="userSpaceOnUse"><stop offset="0" stop-color="#0edbc8"/><stop offset="0.74" stop-color="#be8d50"/><stop offset="1" stop-color="#fd7125"/></linearGradient><linearGradient id="linear-gradient-11" x1="84.81" y1="3.34" x2="26.09" y2="62.07" gradientUnits="userSpaceOnUse"><stop offset="0" stop-color="#10d9c9"/><stop offset="0.65" stop-color="#aa965e"/><stop offset="1" stop-color="#fd7124"/></linearGradient><linearGradient id="linear-gradient-12" x1="84.62" y1="3.52" x2="26.18" y2="61.96" gradientUnits="userSpaceOnUse"><stop offset="0" stop-color="#13d6ca"/><stop offset="0.59" stop-color="#9b9b69"/><stop offset="1" stop-color="#fd7123"/></linearGradient><linearGradient id="linear-gradient-13" x1="84.42" y1="3.7" x2="26.28" y2="61.85" gradientUnits="userSpaceOnUse"><stop offset="0" stop-color="#15d4cc"/><stop offset="0.54" stop-color="#90a073"/><stop offset="1" stop-color="#fd7223"/></linearGradient><linearGradient id="linear-gradient-14" x1="84.28" y1="3.94" x2="26.43" y2="61.79" gradientUnits="userSpaceOnUse"><stop offset="0" stop-color="#17d1cd"/><stop offset="0.5" stop-color="#88a279"/><stop offset="1" stop-color="#fd7222"/></linearGradient><linearGradient id="linear-gradient-15" x1="84.19" y1="4.22" x2="26.63" y2="61.78" gradientUnits="userSpaceOnUse"><stop offset="0" stop-color="#19cece"/><stop offset="0.47" stop-color="#81a47f"/><stop offset="1" stop-color="#fc7221"/></linearGradient><linearGradient id="linear-gradient-16" x1="84.1" y1="4.5" x2="26.83" y2="61.77" gradientUnits="userSpaceOnUse"><stop offset="0" stop-color="#1bcccf"/><stop offset="0.44" stop-color="#7ba684"/><stop offset="1" stop-color="#fc7320"/></linearGradient><linearGradient id="linear-gradient-17" x1="84" y1="4.79" x2="27.02" y2="61.77" gradientUnits="userSpaceOnUse"><stop offset="0" stop-color="#1dc9d1"/><stop offset="0.41" stop-color="#76a78a"/><stop offset="1" stop-color="#fc731f"/></linearGradient><linearGradient id="linear-gradient-18" x1="83.91" y1="5.07" x2="27.21" y2="61.76" gradientUnits="userSpaceOnUse"><stop offset="0" stop-color="#1fc6d2"/><stop offset="0.39" stop-color="#72a78e"/><stop offset="1" stop-color="#fc741e"/></linearGradient><linearGradient id="linear-gradient-19" x1="83.81" y1="5.35" x2="27.41" y2="61.75" gradientUnits="userSpaceOnUse"><stop offset="0" stop-color="#21c4d3"/><stop offset="0.37" stop-color="#6fa893"/><stop offset="1" stop-color="#fc741e"/></linearGradient><linearGradient id="linear-gradient-20" x1="83.72" y1="5.63" x2="27.61" y2="61.74" gradientUnits="userSpaceOnUse"><stop offset="0" stop-color="#23c1d4"/><stop offset="0.35" stop-color="#6ca796"/><stop offset="1" stop-color="#fb741d"/></linearGradient><linearGradient id="linear-gradient-21" x1="83.63" y1="5.91" x2="27.8" y2="61.74" gradientUnits="userSpaceOnUse"><stop offset="0" stop-color="#25bed6"/><stop offset="0.34" stop-color="#6aa69a"/><stop offset="1" stop-color="#fb751c"/></linearGradient><linearGradient id="linear-gradient-22" x1="83.53" y1="6.19" x2="27.99" y2="61.73" gradientUnits="userSpaceOnUse"><stop offset="0" stop-color="#27bcd7"/><stop offset="0.32" stop-color="#68a69d"/><stop offset="1" stop-color="#fb751b"/></linearGradient><linearGradient id="linear-gradient-23" x1="83.44" y1="6.47" x2="28.18" y2="61.73" gradientUnits="userSpaceOnUse"><stop offset="0" stop-color="#29b9d8"/><stop offset="0.31" stop-color="#67a5a0"/><stop offset="1" stop-color="#fb751a"/></linearGradient><linearGradient id="linear-gradient-24" x1="83.34" y1="6.75" x2="28.37" y2="61.72" gradientUnits="userSpaceOnUse"><stop offset="0" stop-color="#2bb6d9"/><stop offset="0.3" stop-color="#66a4a2"/><stop offset="1" stop-color="#fa7619"/></linearGradient><linearGradient id="linear-gradient-25" x1="83.25" y1="7.03" x2="28.56" y2="61.72" gradientUnits="userSpaceOnUse"><stop offset="0" stop-color="#2db4db"/><stop offset="0.29" stop-color="#65a3a5"/><stop offset="0.96" stop-color="#f2781f"/><stop offset="1" stop-color="#fa7618"/></linearGradient><linearGradient id="linear-gradient-26" x1="83.15" y1="7.32" x2="28.75" y2="61.72" gradientUnits="userSpaceOnUse"><stop offset="0" stop-color="#2fb1dc"/><stop offset="0.28" stop-color="#65a2a8"/><stop offset="0.93" stop-color="#ec7b26"/><stop offset="1" stop-color="#fa7718"/></linearGradient><linearGradient id="linear-gradient-27" x1="83.06" y1="7.6" x2="28.94" y2="61.71" gradientUnits="userSpaceOnUse"><stop offset="0" stop-color="#31aedd"/><stop offset="0.28" stop-color="#65a0aa"/><stop offset="0.9" stop-color="#e67d2b"/><stop offset="1" stop-color="#fa7717"/></linearGradient><linearGradient id="linear-gradient-28" x1="82.97" y1="7.88" x2="29.13" y2="61.71" gradientUnits="userSpaceOnUse"><stop offset="0" stop-color="#33acde"/><stop offset="0.27" stop-color="#649fac"/><stop offset="0.87" stop-color="#e07e30"/><stop offset="1" stop-color="#fa7716"/></linearGradient><linearGradient id="linear-gradient-29" x1="82.87" y1="8.16" x2="29.32" y2="61.71" gradientUnits="userSpaceOnUse"><stop offset="0" stop-color="#36a9e0"/><stop offset="0.25" stop-color="#649db0"/><stop offset="0.83" stop-color="#d68139"/><stop offset="1" stop-color="#f97815"/></linearGradient><linearGradient id="linear-gradient-30" x1="82.78" y1="8.44" x2="29.5" y2="61.72" gradientUnits="userSpaceOnUse"><stop offset="0" stop-color="#38a7e1"/><stop offset="0.24" stop-color="#639cb3"/><stop offset="0.8" stop-color="#cf8240"/><stop offset="1" stop-color="#f97814"/></linearGradient><linearGradient id="linear-gradient-31" x1="82.68" y1="8.72" x2="29.68" y2="61.72" gradientUnits="userSpaceOnUse"><stop offset="0" stop-color="#3aa4e2"/><stop offset="0.23" stop-color="#639bb6"/><stop offset="0.76" stop-color="#c98347"/><stop offset="1" stop-color="#f97813"/></linearGradient><linearGradient id="linear-gradient-32" x1="82.59" y1="9" x2="29.86" y2="61.73" gradientUnits="userSpaceOnUse"><stop offset="0" stop-color="#3ca1e3"/><stop offset="0.23" stop-color="#6399b8"/><stop offset="0.73" stop-color="#c4844d"/><stop offset="1" stop-color="#f97913"/></linearGradient><linearGradient id="linear-gradient-33" x1="82.49" y1="9.28" x2="30.04" y2="61.73" gradientUnits="userSpaceOnUse"><stop offset="0" stop-color="#3e9fe5"/><stop offset="0.22" stop-color="#6398bc"/><stop offset="0.7" stop-color="#be8554"/><stop offset="1" stop-color="#f97912"/></linearGradient><linearGradient id="linear-gradient-34" x1="82.4" y1="9.56" x2="30.23" y2="61.73" gradientUnits="userSpaceOnUse"><stop offset="0" stop-color="#409ce6"/><stop offset="0.21" stop-color="#6296be"/><stop offset="0.68" stop-color="#b9865a"/><stop offset="1" stop-color="#f87a11"/></linearGradient><linearGradient id="linear-gradient-35" x1="82.31" y1="9.84" x2="30.4" y2="61.75" gradientUnits="userSpaceOnUse"><stop offset="0" stop-color="#4299e7"/><stop offset="0.2" stop-color="#6393c0"/><stop offset="0.65" stop-color="#b5855f"/><stop offset="1" stop-color="#f87a10"/></linearGradient><linearGradient id="linear-gradient-36" x1="82.21" y1="10.12" x2="30.57" y2="61.76" gradientUnits="userSpaceOnUse"><stop offset="0" stop-color="#4497e8"/><stop offset="0.2" stop-color="#6392c3"/><stop offset="0.63" stop-color="#b18564"/><stop offset="1" stop-color="#f87a0f"/></linearGradient><linearGradient id="linear-gradient-37" x1="82.12" y1="10.4" x2="30.74" y2="61.78" gradientUnits="userSpaceOnUse"><stop offset="0" stop-color="#4694ea"/><stop offset="0.19" stop-color="#6390c6"/><stop offset="0.6" stop-color="#ad856a"/><stop offset="1" stop-color="#f87b0e"/></linearGradient><linearGradient id="linear-gradient-38" x1="82.02" y1="10.68" x2="30.91" y2="61.8" gradientUnits="userSpaceOnUse"><stop offset="0" stop-color="#4891eb"/><stop offset="0.18" stop-color="#648ec8"/><stop offset="0.59" stop-color="#ab856e"/><stop offset="1" stop-color="#f77b0d"/></linearGradient><linearGradient id="linear-gradient-39" x1="81.93" y1="10.97" x2="31.07" y2="61.82" gradientUnits="userSpaceOnUse"><stop offset="0" stop-color="#4a8fec"/><stop offset="0.18" stop-color="#658cca"/><stop offset="0.57" stop-color="#a88472"/><stop offset="1" stop-color="#f77b0d"/></linearGradient><linearGradient id="linear-gradient-40" x1="81.83" y1="11.25" x2="31.23" y2="61.84" gradientUnits="userSpaceOnUse"><stop offset="0" stop-color="#4c8ced"/><stop offset="0.17" stop-color="#658acc"/><stop offset="0.55" stop-color="#a68476"/><stop offset="1" stop-color="#f77c0c"/></linearGradient><linearGradient id="linear-gradient-41" x1="81.74" y1="11.53" x2="31.4" y2="61.86" gradientUnits="userSpaceOnUse"><stop offset="0" stop-color="#4e89ef"/><stop offset="0.17" stop-color="#6687cf"/><stop offset="0.53" stop-color="#a4827c"/><stop offset="1" stop-color="#f77c0b"/></linearGradient><linearGradient id="linear-gradient-42" x1="81.64" y1="11.81" x2="31.56" y2="61.89" gradientUnits="userSpaceOnUse"><stop offset="0" stop-color="#5087f0"/><stop offset="0.16" stop-color="#6786d0"/><stop offset="0.52" stop-color="#a28280"/><stop offset="1" stop-color="#f77d0a"/></linearGradient><linearGradient id="linear-gradient-43" x1="81.55" y1="12.09" x2="31.71" y2="61.92" gradientUnits="userSpaceOnUse"><stop offset="0" stop-color="#5284f1"/><stop offset="0.16" stop-color="#6883d2"/><stop offset="0.5" stop-color="#a08183"/><stop offset="1" stop-color="#f67d09"/></linearGradient><linearGradient id="linear-gradient-44" x1="81.45" y1="12.37" x2="31.86" y2="61.97" gradientUnits="userSpaceOnUse"><stop offset="0" stop-color="#5481f2"/><stop offset="0.15" stop-color="#6980d4"/><stop offset="0.49" stop-color="#9e7f87"/><stop offset="0.98" stop-color="#f27d0d"/><stop offset="1" stop-color="#f67d08"/></linearGradient><linearGradient id="linear-gradient-45" x1="81.36" y1="12.65" x2="32" y2="62.01" gradientUnits="userSpaceOnUse"><stop offset="0" stop-color="#567ff4"/><stop offset="0.15" stop-color="#6a7fd7"/><stop offset="0.48" stop-color="#9d7f8c"/><stop offset="0.95" stop-color="#ed7e15"/><stop offset="1" stop-color="#f67e08"/></linearGradient><linearGradient id="linear-gradient-46" x1="81.26" y1="12.93" x2="32.13" y2="62.06" gradientUnits="userSpaceOnUse"><stop offset="0" stop-color="#597cf5"/><stop offset="0.15" stop-color="#6c7cd8"/><stop offset="0.46" stop-color="#9c7d8f"/><stop offset="0.92" stop-color="#e97e1b"/><stop offset="1" stop-color="#f67e07"/></linearGradient><linearGradient id="linear-gradient-47" x1="81.17" y1="13.21" x2="32.26" y2="62.12" gradientUnits="userSpaceOnUse"><stop offset="0" stop-color="#5b7af6"/><stop offset="0.14" stop-color="#6d7ada"/><stop offset="0.45" stop-color="#9b7c92"/><stop offset="0.9" stop-color="#e57e21"/><stop offset="1" stop-color="#f67e06"/></linearGradient><linearGradient id="linear-gradient-48" x1="81.07" y1="13.49" x2="32.39" y2="62.18" gradientUnits="userSpaceOnUse"><stop offset="0" stop-color="#5d77f7"/><stop offset="0.14" stop-color="#6e78dc"/><stop offset="0.44" stop-color="#9a7a95"/><stop offset="0.87" stop-color="#e07e26"/><stop offset="1" stop-color="#f57f05"/></linearGradient><linearGradient id="linear-gradient-49" x1="80.98" y1="13.77" x2="32.51" y2="62.24" gradientUnits="userSpaceOnUse"><stop offset="0" stop-color="#5f74f9"/><stop offset="0.14" stop-color="#6f75de"/><stop offset="0.43" stop-color="#99789a"/><stop offset="0.85" stop-color="#dc7d2d"/><stop offset="1" stop-color="#f57f04"/></linearGradient><linearGradient id="linear-gradient-50" x1="80.88" y1="14.05" x2="32.62" y2="62.31" gradientUnits="userSpaceOnUse"><stop offset="0" stop-color="#6172fa"/><stop offset="0.13" stop-color="#7173e0"/><stop offset="0.42" stop-color="#99779d"/><stop offset="0.83" stop-color="#d97d32"/><stop offset="1" stop-color="#f58003"/></linearGradient><linearGradient id="linear-gradient-51" x1="80.79" y1="14.33" x2="32.73" y2="62.39" gradientUnits="userSpaceOnUse"><stop offset="0" stop-color="#636ffb"/><stop offset="0.13" stop-color="#7271e1"/><stop offset="0.41" stop-color="#9975a0"/><stop offset="0.81" stop-color="#d67c37"/><stop offset="1" stop-color="#f58003"/></linearGradient><linearGradient id="linear-gradient-52" x1="80.69" y1="14.61" x2="32.83" y2="62.47" gradientUnits="userSpaceOnUse"><stop offset="0" stop-color="#656cfc"/><stop offset="0.13" stop-color="#736ee3"/><stop offset="0.4" stop-color="#9873a2"/><stop offset="0.79" stop-color="#d37b3c"/><stop offset="1" stop-color="#f48002"/></linearGradient><linearGradient id="linear-gradient-53" x1="80.6" y1="14.89" x2="32.94" y2="62.54" gradientUnits="userSpaceOnUse"><stop offset="0" stop-color="#676afe"/><stop offset="0.12" stop-color="#756ce5"/><stop offset="0.39" stop-color="#9872a6"/><stop offset="0.77" stop-color="#d07b42"/><stop offset="1" stop-color="#f48101"/></linearGradient><linearGradient id="linear-gradient-54" x1="80.5" y1="15.17" x2="33.03" y2="62.64" gradientUnits="userSpaceOnUse"><stop offset="0" stop-color="#6967ff"/><stop offset="0.12" stop-color="#7669e7"/><stop offset="0.38" stop-color="#9870a9"/><stop offset="0.75" stop-color="#ce7a47"/><stop offset="1" stop-color="#f48100"/></linearGradient><linearGradient id="linear-gradient-55" x1="80.85" y1="14.89" x2="33.05" y2="62.7" gradientUnits="userSpaceOnUse"><stop offset="0" stop-color="#6c65fd"/><stop offset="0.12" stop-color="#7968e5"/><stop offset="0.39" stop-color="#9a6fa7"/><stop offset="0.77" stop-color="#ce7a45"/><stop offset="1" stop-color="#f08105"/></linearGradient><linearGradient id="linear-gradient-56" x1="81.21" y1="14.62" x2="33.05" y2="62.77" gradientUnits="userSpaceOnUse"><stop offset="0" stop-color="#6f63fb"/><stop offset="0.13" stop-color="#7b66e3"/><stop offset="0.4" stop-color="#9b6da5"/><stop offset="0.79" stop-color="#ce7943"/><stop offset="1" stop-color="#eb800a"/></linearGradient><linearGradient id="linear-gradient-57" x1="81.56" y1="14.34" x2="33.04" y2="62.86" gradientUnits="userSpaceOnUse"><stop offset="0" stop-color="#7161f9"/><stop offset="0.13" stop-color="#7d64e1"/><stop offset="0.41" stop-color="#9c6ca3"/><stop offset="0.81" stop-color="#ce7941"/><stop offset="1" stop-color="#e7800f"/></linearGradient><linearGradient id="linear-gradient-58" x1="81.91" y1="14.06" x2="33.01" y2="62.96" gradientUnits="userSpaceOnUse"><stop offset="0" stop-color="#745ff7"/><stop offset="0.13" stop-color="#8063df"/><stop offset="0.42" stop-color="#9e6ca1"/><stop offset="0.83" stop-color="#cd7a3f"/><stop offset="1" stop-color="#e28014"/></linearGradient><linearGradient id="linear-gradient-59" x1="82.27" y1="13.79" x2="32.96" y2="63.09" gradientUnits="userSpaceOnUse"><stop offset="0" stop-color="#775df5"/><stop offset="0.14" stop-color="#8261dd"/><stop offset="0.43" stop-color="#9f6a9f"/><stop offset="0.85" stop-color="#cd793d"/><stop offset="1" stop-color="#de7f19"/></linearGradient><linearGradient id="linear-gradient-60" x1="82.62" y1="13.51" x2="32.9" y2="63.23" gradientUnits="userSpaceOnUse"><stop offset="0" stop-color="#7a5bf3"/><stop offset="0.14" stop-color="#855fdb"/><stop offset="0.45" stop-color="#a06a9d"/><stop offset="0.88" stop-color="#cc7a3b"/><stop offset="1" stop-color="#d97f1e"/></linearGradient><linearGradient id="linear-gradient-61" x1="82.97" y1="13.24" x2="32.79" y2="63.42" gradientUnits="userSpaceOnUse"><stop offset="0" stop-color="#7c59f1"/><stop offset="0.15" stop-color="#865dd9"/><stop offset="0.46" stop-color="#a1699b"/><stop offset="0.91" stop-color="#cc7b39"/><stop offset="1" stop-color="#d57f23"/></linearGradient><linearGradient id="linear-gradient-62" x1="83.33" y1="12.96" x2="32.67" y2="63.61" gradientUnits="userSpaceOnUse"><stop offset="0" stop-color="#7f57ef"/><stop offset="0.15" stop-color="#895cd7"/><stop offset="0.47" stop-color="#a26899"/><stop offset="0.93" stop-color="#ca7b37"/><stop offset="1" stop-color="#d07e28"/></linearGradient><linearGradient id="linear-gradient-63" x1="83.68" y1="12.69" x2="32.52" y2="63.84" gradientUnits="userSpaceOnUse"><stop offset="0" stop-color="#8255ec"/><stop offset="0.16" stop-color="#8b5ad4"/><stop offset="0.49" stop-color="#a36796"/><stop offset="0.97" stop-color="#c97d34"/><stop offset="1" stop-color="#cc7e2d"/></linearGradient><linearGradient id="linear-gradient-64" x1="84.03" y1="12.41" x2="32.34" y2="64.1" gradientUnits="userSpaceOnUse"><stop offset="0" stop-color="#8553ea"/><stop offset="0.16" stop-color="#8e59d2"/><stop offset="0.51" stop-color="#a46794"/><stop offset="1" stop-color="#c77e32"/></linearGradient><linearGradient id="linear-gradient-65" x1="84.39" y1="12.13" x2="32.13" y2="64.39" gradientUnits="userSpaceOnUse"><stop offset="0" stop-color="#8851e8"/><stop offset="0.17" stop-color="#9057d0"/><stop offset="0.52" stop-color="#a56792"/><stop offset="1" stop-color="#c37e37"/></linearGradient><linearGradient id="linear-gradient-66" x1="84.73" y1="11.85" x2="31.89" y2="64.69" gradientUnits="userSpaceOnUse"><stop offset="0" stop-color="#8a4fe6"/><stop offset="0.17" stop-color="#9156ce"/><stop offset="0.54" stop-color="#a46690"/><stop offset="1" stop-color="#be7d3c"/></linearGradient><linearGradient id="linear-gradient-67" x1="85.07" y1="11.56" x2="31.65" y2="64.99" gradientUnits="userSpaceOnUse"><stop offset="0" stop-color="#8d4de4"/><stop offset="0.18" stop-color="#9454cc"/><stop offset="0.56" stop-color="#a5668e"/><stop offset="1" stop-color="#ba7d41"/></linearGradient><linearGradient id="linear-gradient-68" x1="85.42" y1="11.28" x2="31.41" y2="65.28" gradientUnits="userSpaceOnUse"><stop offset="0" stop-color="#904be2"/><stop offset="0.19" stop-color="#9653ca"/><stop offset="0.59" stop-color="#a4678c"/><stop offset="1" stop-color="#b57d46"/></linearGradient><linearGradient id="linear-gradient-69" x1="85.76" y1="10.99" x2="31.17" y2="65.58" gradientUnits="userSpaceOnUse"><stop offset="0" stop-color="#9349e0"/><stop offset="0.2" stop-color="#9851c8"/><stop offset="0.61" stop-color="#a4668b"/><stop offset="1" stop-color="#b17c4b"/></linearGradient><linearGradient id="linear-gradient-70" x1="86.1" y1="10.71" x2="30.94" y2="65.88" gradientUnits="userSpaceOnUse"><stop offset="0" stop-color="#9647de"/><stop offset="0.2" stop-color="#9a50c6"/><stop offset="0.63" stop-color="#a36789"/><stop offset="1" stop-color="#ac7c50"/></linearGradient><linearGradient id="linear-gradient-71" x1="86.45" y1="10.42" x2="30.7" y2="66.17" gradientUnits="userSpaceOnUse"><stop offset="0" stop-color="#9845dc"/><stop offset="0.21" stop-color="#9b4fc4"/><stop offset="0.66" stop-color="#a26887"/><stop offset="1" stop-color="#a87c55"/></linearGradient><linearGradient id="linear-gradient-72" x1="86.79" y1="10.13" x2="30.46" y2="66.47" gradientUnits="userSpaceOnUse"><stop offset="0" stop-color="#9b43da"/><stop offset="0.22" stop-color="#9d4ec2"/><stop offset="0.7" stop-color="#a16885"/><stop offset="1" stop-color="#a47b5a"/></linearGradient><linearGradient id="linear-gradient-73" x1="87.14" y1="9.85" x2="30.22" y2="66.76" gradientUnits="userSpaceOnUse"><stop offset="0" stop-color="#9e41d8"/><stop offset="0.24" stop-color="#9e4dc0"/><stop offset="0.73" stop-color="#9f6a83"/><stop offset="1" stop-color="#9f7b5f"/></linearGradient><linearGradient id="linear-gradient-74" x1="87.48" y1="9.56" x2="29.99" y2="67.06" gradientUnits="userSpaceOnUse"><stop offset="0" stop-color="#a13fd6"/><stop offset="0.25" stop-color="#a04cbe"/><stop offset="0.77" stop-color="#9d6c81"/><stop offset="1" stop-color="#9b7b64"/></linearGradient><linearGradient id="linear-gradient-75" x1="87.82" y1="9.28" x2="29.75" y2="67.35" gradientUnits="userSpaceOnUse"><stop offset="0" stop-color="#a33dd4"/><stop offset="0.26" stop-color="#a04bbc"/><stop offset="0.82" stop-color="#996e7f"/><stop offset="1" stop-color="#967a69"/></linearGradient><linearGradient id="linear-gradient-76" x1="88.17" y1="8.99" x2="29.52" y2="67.65" gradientUnits="userSpaceOnUse"><stop offset="0" stop-color="#a63bd2"/><stop offset="0.28" stop-color="#a14aba"/><stop offset="0.87" stop-color="#95717d"/><stop offset="1" stop-color="#927a6e"/></linearGradient><linearGradient id="linear-gradient-77" x1="88.51" y1="8.71" x2="29.28" y2="67.94" gradientUnits="userSpaceOnUse"><stop offset="0" stop-color="#a939d0"/><stop offset="0.3" stop-color="#a24ab8"/><stop offset="0.93" stop-color="#8f757b"/><stop offset="1" stop-color="#8d7a73"/></linearGradient><linearGradient id="linear-gradient-78" x1="88.86" y1="8.43" x2="29.04" y2="68.24" gradientUnits="userSpaceOnUse"><stop offset="0" stop-color="#ac37ce"/><stop offset="0.32" stop-color="#a249b6"/><stop offset="0.99" stop-color="#897879"/><stop offset="1" stop-color="#897978"/></linearGradient><linearGradient id="linear-gradient-79" x1="89.2" y1="8.14" x2="28.81" y2="68.53" gradientUnits="userSpaceOnUse"><stop offset="0" stop-color="#af35cc"/><stop offset="0.35" stop-color="#a24ab4"/><stop offset="1" stop-color="#84797d"/></linearGradient><linearGradient id="linear-gradient-80" x1="89.55" y1="7.86" x2="28.57" y2="68.83" gradientUnits="userSpaceOnUse"><stop offset="0" stop-color="#b132c9"/><stop offset="0.38" stop-color="#a04ab1"/><stop offset="1" stop-color="#807982"/></linearGradient><linearGradient id="linear-gradient-81" x1="89.89" y1="7.57" x2="28.34" y2="69.13" gradientUnits="userSpaceOnUse"><stop offset="0" stop-color="#b430c7"/><stop offset="0.37" stop-color="#a148b2"/><stop offset="1" stop-color="#7b7987"/></linearGradient><linearGradient id="linear-gradient-82" x1="90.24" y1="7.29" x2="28.11" y2="69.42" gradientUnits="userSpaceOnUse"><stop offset="0" stop-color="#b72ec5"/><stop offset="0.37" stop-color="#a246b3"/><stop offset="1" stop-color="#77788c"/></linearGradient><linearGradient id="linear-gradient-83" x1="90.58" y1="7" x2="27.87" y2="69.72" gradientUnits="userSpaceOnUse"><stop offset="0" stop-color="#ba2cc3"/><stop offset="0.36" stop-color="#a344b3"/><stop offset="1" stop-color="#727891"/></linearGradient><linearGradient id="linear-gradient-84" x1="90.93" y1="6.72" x2="27.64" y2="70.01" gradientUnits="userSpaceOnUse"><stop offset="0" stop-color="#bd2ac1"/><stop offset="0.35" stop-color="#a542b4"/><stop offset="1" stop-color="#6e7896"/></linearGradient><linearGradient id="linear-gradient-85" x1="91.27" y1="6.44" x2="27.4" y2="70.31" gradientUnits="userSpaceOnUse"><stop offset="0" stop-color="#bf28bf"/><stop offset="0.32" stop-color="#a73eb5"/><stop offset="0.99" stop-color="#6a769b"/><stop offset="1" stop-color="#69779b"/></linearGradient><linearGradient id="linear-gradient-86" x1="91.62" y1="6.15" x2="27.17" y2="70.6" gradientUnits="userSpaceOnUse"><stop offset="0" stop-color="#c226bd"/><stop offset="0.3" stop-color="#aa3bb6"/><stop offset="0.93" stop-color="#6d70a2"/><stop offset="1" stop-color="#6577a0"/></linearGradient><linearGradient id="linear-gradient-87" x1="91.97" y1="5.87" x2="26.94" y2="70.9" gradientUnits="userSpaceOnUse"><stop offset="0" stop-color="#c524bb"/><stop offset="0.28" stop-color="#ad38b6"/><stop offset="0.86" stop-color="#706aa8"/><stop offset="1" stop-color="#6077a5"/></linearGradient><linearGradient id="linear-gradient-88" x1="92.31" y1="5.59" x2="26.7" y2="71.2" gradientUnits="userSpaceOnUse"><stop offset="0" stop-color="#c822b9"/><stop offset="0.26" stop-color="#b035b6"/><stop offset="0.81" stop-color="#7364ad"/><stop offset="1" stop-color="#5c76aa"/></linearGradient><linearGradient id="linear-gradient-89" x1="92.66" y1="5.3" x2="26.47" y2="71.49" gradientUnits="userSpaceOnUse"><stop offset="0" stop-color="#ca20b7"/><stop offset="0.25" stop-color="#b232b5"/><stop offset="0.77" stop-color="#7560b1"/><stop offset="1" stop-color="#5876af"/></linearGradient><linearGradient id="linear-gradient-90" x1="93" y1="5.02" x2="26.24" y2="71.79" gradientUnits="userSpaceOnUse"><stop offset="0" stop-color="#cd1eb5"/><stop offset="0.23" stop-color="#b52fb5"/><stop offset="0.73" stop-color="#785cb4"/><stop offset="1" stop-color="#5376b4"/></linearGradient><linearGradient id="linear-gradient-91" x1="93.35" y1="4.74" x2="26" y2="72.09" gradientUnits="userSpaceOnUse"><stop offset="0" stop-color="#d01cb3"/><stop offset="0.22" stop-color="#b82db4"/><stop offset="0.69" stop-color="#7b57b7"/><stop offset="1" stop-color="#4f75b9"/></linearGradient><linearGradient id="linear-gradient-92" x1="93.7" y1="4.46" x2="25.77" y2="72.38" gradientUnits="userSpaceOnUse"><stop offset="0" stop-color="#d31ab1"/><stop offset="0.21" stop-color="#bb2ab3"/><stop offset="0.66" stop-color="#7e53b9"/><stop offset="1" stop-color="#4a75be"/></linearGradient><linearGradient id="linear-gradient-93" x1="94.04" y1="4.17" x2="25.54" y2="72.68" gradientUnits="userSpaceOnUse"><stop offset="0" stop-color="#d618af"/><stop offset="0.2" stop-color="#be28b2"/><stop offset="0.63" stop-color="#814fbb"/><stop offset="1" stop-color="#4675c3"/></linearGradient><linearGradient id="linear-gradient-94" x1="94.39" y1="3.89" x2="25.3" y2="72.98" gradientUnits="userSpaceOnUse"><stop offset="0" stop-color="#d816ad"/><stop offset="0.19" stop-color="#c025b1"/><stop offset="0.6" stop-color="#834bbc"/><stop offset="1" stop-color="#4174c8"/></linearGradient><linearGradient id="linear-gradient-95" x1="94.73" y1="3.61" x2="25.07" y2="73.27" gradientUnits="userSpaceOnUse"><stop offset="0" stop-color="#db14ab"/><stop offset="0.19" stop-color="#c323b0"/><stop offset="0.58" stop-color="#8548bd"/><stop offset="1" stop-color="#3d74cd"/></linearGradient><linearGradient id="linear-gradient-96" x1="95.08" y1="3.33" x2="24.84" y2="73.57" gradientUnits="userSpaceOnUse"><stop offset="0" stop-color="#de12a9"/><stop offset="0.18" stop-color="#c620af"/><stop offset="0.56" stop-color="#8845be"/><stop offset="1" stop-color="#3874d2"/></linearGradient><linearGradient id="linear-gradient-97" x1="95.43" y1="3.04" x2="24.6" y2="73.87" gradientUnits="userSpaceOnUse"><stop offset="0" stop-color="#e110a6"/><stop offset="0.17" stop-color="#c91ead"/><stop offset="0.54" stop-color="#8b42be"/><stop offset="1" stop-color="#3474d7"/></linearGradient><linearGradient id="linear-gradient-98" x1="95.77" y1="2.76" x2="24.37" y2="74.17" gradientUnits="userSpaceOnUse"><stop offset="0" stop-color="#e40ea4"/><stop offset="0.17" stop-color="#cc1bab"/><stop offset="0.51" stop-color="#8e3ebf"/><stop offset="1" stop-color="#2f73dc"/></linearGradient><linearGradient id="linear-gradient-99" x1="96.12" y1="2.48" x2="24.14" y2="74.46" gradientUnits="userSpaceOnUse"><stop offset="0" stop-color="#e60ca2"/><stop offset="0.16" stop-color="#ce19aa"/><stop offset="0.5" stop-color="#903bbf"/><stop offset="0.99" stop-color="#2e72e0"/><stop offset="1" stop-color="#2b73e1"/></linearGradient><linearGradient id="linear-gradient-100" x1="96.47" y1="2.2" x2="23.9" y2="74.76" gradientUnits="userSpaceOnUse"><stop offset="0" stop-color="#e90aa0"/><stop offset="0.15" stop-color="#d117a9"/><stop offset="0.48" stop-color="#9338bf"/><stop offset="0.95" stop-color="#316de2"/><stop offset="1" stop-color="#2673e6"/></linearGradient><linearGradient id="linear-gradient-101" x1="96.83" y1="1.9" x2="23.67" y2="75.06" gradientUnits="userSpaceOnUse"><stop offset="0" stop-color="#ec089e"/><stop offset="0.15" stop-color="#d415a7"/><stop offset="0.47" stop-color="#9635bf"/><stop offset="0.92" stop-color="#3469e4"/><stop offset="1" stop-color="#2272eb"/></linearGradient><linearGradient id="linear-gradient-102" x1="97.21" y1="1.59" x2="23.44" y2="75.36" gradientUnits="userSpaceOnUse"><stop offset="0" stop-color="#ef069c"/><stop offset="0.14" stop-color="#d712a6"/><stop offset="0.45" stop-color="#9932be"/><stop offset="0.89" stop-color="#3765e6"/><stop offset="1" stop-color="#1d72f0"/></linearGradient><linearGradient id="linear-gradient-103" x1="97.6" y1="1.26" x2="23.21" y2="75.65" gradientUnits="userSpaceOnUse"><stop offset="0" stop-color="#f1049a"/><stop offset="0.14" stop-color="#d910a4"/><stop offset="0.44" stop-color="#9b30be"/><stop offset="0.87" stop-color="#3962e8"/><stop offset="1" stop-color="#1972f5"/></linearGradient><linearGradient id="linear-gradient-104" x1="97.99" y1="0.93" x2="22.97" y2="75.95" gradientUnits="userSpaceOnUse"><stop offset="0" stop-color="#f40298"/><stop offset="0.14" stop-color="#dc0ea3"/><stop offset="0.43" stop-color="#9e2dbe"/><stop offset="0.84" stop-color="#3c5de9"/><stop offset="1" stop-color="#1471fa"/></linearGradient><linearGradient id="linear-gradient-105" x1="98.24" y1="0.48" x2="22.61" y2="76.12" gradientUnits="userSpaceOnUse"><stop offset="0" stop-color="#f70096"/><stop offset="0.13" stop-color="#df0ca1"/><stop offset="0.41" stop-color="#a12abd"/><stop offset="0.82" stop-color="#3f5aea"/><stop offset="1" stop-color="#1071ff"/></linearGradient><linearGradient id="linear-gradient-106" x1="680.22" y1="-6.12" x2="719.84" y2="61.37" gradientTransform="translate(-568.05 -311.6) rotate(25.84)" gradientUnits="userSpaceOnUse"><stop offset="0"/><stop offset="0.23" stop-color="#050505"/><stop offset="0.49" stop-color="#131313"/><stop offset="0.77" stop-color="#292929"/><stop offset="1" stop-color="#424242"/></linearGradient><linearGradient id="linear-gradient-107" x1="70.6" y1="12.08" x2="87.44" y2="12.08" gradientUnits="userSpaceOnUse"><stop offset="0" stop-color="#636142"/><stop offset="0.03" stop-color="#5c5a3d"/><stop offset="0.21" stop-color="#3b3a27"/><stop offset="0.4" stop-color="#212016"/><stop offset="0.59" stop-color="#0f0e0a"/><stop offset="0.78" stop-color="#040402"/><stop offset="1"/></linearGradient><linearGradient id="linear-gradient-108" x1="32.67" y1="49.43" x2="57.06" y2="49.43" xlink:href="#linear-gradient-107"/><linearGradient id="linear-gradient-109" x1="27.21" y1="18" x2="38.67" y2="18" xlink:href="#linear-gradient-107"/><linearGradient id="linear-gradient-110" x1="82.29" y1="33.16" x2="107.44" y2="33.16" xlink:href="#linear-gradient-107"/><linearGradient id="linear-gradient-111" x1="3.67" y1="50.39" x2="13.44" y2="50.39" xlink:href="#linear-gradient-107"/><linearGradient id="linear-gradient-112" x1="13.98" y1="4.62" x2="32.21" y2="4.62" xlink:href="#linear-gradient-107"/></defs><title>Artboard 76</title><g class="cls-2"><g id="Layer_1" data-name="Layer 1"><rect class="cls-1" width="108" height="66.46"/><g class="cls-3"><path class="cls-4" d="M83.6,57.43a10.72,10.72,0,0,1-7.49-3.23c-3.57-3.33-6.49-8.88-9.88-15.31a149.55,149.55,0,0,0-9.14-15.72C53,17.2,48.33,14,43.33,13.71c-6.5-.4-13.7,3.94-22,13.27-5,5.57-10.85,11.26-16.77,11.16-3.27,0-6.28-1.77-9.21-5.27l.44-.37c2.82,3.36,5.69,5,8.78,5.06,5.69.07,11.44-5.5,16.32-11,8.44-9.47,15.8-13.88,22.48-13.46,5.2.32,10,3.58,14.21,9.71a151.06,151.06,0,0,1,9.18,15.78c6.73,12.79,11.6,22,22.84,16.67,15.72-7.49,24.08-25.5,24.17-25.68l.53.25c-.09.18-8.54,18.38-24.45,26A14.59,14.59,0,0,1,83.6,57.43Z"/><path class="cls-5" d="M83.77,57.08a9.82,9.82,0,0,1-4.71-1.18c-2.64-1.41-5.06-4-7.84-8.47C69.6,44.84,68,41.9,66.3,38.78A152.62,152.62,0,0,0,57,23.28c-3.78-5.33-8-8.37-12.48-9-4.66-.69-9.61,1.05-15.12,5.32a64.32,64.32,0,0,0-8.13,7.69C16.32,32.66,10.48,38.16,4.6,38c-3.27-.07-6.27-1.81-9.19-5.3l.45-.38c2.81,3.36,5.67,5,8.75,5.09,5.65.14,11.37-5.28,16.22-10.58A65.51,65.51,0,0,1,29,19.1c5.64-4.37,10.74-6.15,15.57-5.44,4.66.69,9,3.82,12.87,9.28A153.13,153.13,0,0,1,66.82,38.5c1.69,3.11,3.29,6,4.9,8.61,4.71,7.54,9.54,11.78,17.86,7.93,6.29-2.92,15.52-9.5,23.76-24.27.46-.83.48-.86.62-.91l.19.56a.23.23,0,0,0,.11-.07s-.21.36-.41.71C105.54,46,96.2,52.62,89.82,55.58A14.45,14.45,0,0,1,83.77,57.08Z"/><path class="cls-6" d="M83.94,56.75c-5.22,0-9-3.89-12.63-9.67-1.59-2.48-3.16-5.27-4.83-8.23a155.57,155.57,0,0,0-9.56-15.46C53.16,18.24,49,15.3,44.55,14.66,39.89,14,34.93,15.72,29.37,20a66.74,66.74,0,0,0-8.15,7.57C16.3,32.77,10.48,38.11,4.65,37.93c-3.26-.1-6.26-1.85-9.17-5.35l.46-.38c2.79,3.36,5.64,5,8.73,5.13,5.59.17,11.28-5.06,16.11-10.2A67.82,67.82,0,0,1,29,19.5c5.69-4.35,10.8-6.13,15.63-5.43,4.61.67,8.9,3.69,12.76,9A154.27,154.27,0,0,1,67,38.56c1.66,2.95,3.23,5.73,4.81,8.2,4.75,7.47,9.59,11.69,17.76,8,13-5.84,20.79-18.78,23.36-23,.77-1.26.88-1.43,1.06-1.49l.19.57s.07,0,.07-.05-.42.64-.81,1.28c-2.59,4.29-10.5,17.34-23.63,23.26A14.36,14.36,0,0,1,83.94,56.75Z"/><path class="cls-7" d="M84.15,56.4c-5.24,0-9-3.89-12.76-9.66-1.56-2.4-3.1-5-4.73-7.85a158.91,158.91,0,0,0-9.82-15.38c-3.74-5-7.86-7.82-12.25-8.44-4.66-.66-9.65,1.08-15.25,5.31a68.41,68.41,0,0,0-8.18,7.44C16.27,32.89,10.49,38,4.7,37.82c-3.26-.12-6.25-1.88-9.14-5.38l.46-.38c2.78,3.35,5.62,5,8.7,5.16,5.56.22,11.21-4.84,16-9.82A68.76,68.76,0,0,1,29,19.9c5.73-4.33,10.87-6.1,15.69-5.42,4.56.64,8.81,3.56,12.65,8.67a159.49,159.49,0,0,1,9.86,15.44c1.63,2.8,3.17,5.44,4.71,7.82C76.82,54,81.5,58,89.55,54.54c12.34-5.4,20.08-17.37,23-21.88,1-1.5,1.23-1.9,1.48-2l.19.57,0,0A17.71,17.71,0,0,0,113,33c-2.94,4.55-10.74,16.64-23.25,22.11A14.13,14.13,0,0,1,84.15,56.4Z"/><path class="cls-8" d="M84.35,56.07c-5.25,0-9.07-3.9-12.88-9.67-1.51-2.29-3-4.78-4.6-7.42A159.05,159.05,0,0,0,56.75,23.62c-4.23-5.48-9-8.26-14-8.26h-.1c-4.11,0-8.47,1.8-13.32,5.43a70.92,70.92,0,0,0-8.21,7.3C16.25,33,10.5,38,4.75,37.72c-3.26-.15-6.24-1.93-9.12-5.43l.47-.38c2.76,3.36,5.6,5.06,8.68,5.2,5.51.26,11.13-4.63,15.9-9.44A72.27,72.27,0,0,1,29,20.3C40.06,12,49.31,13,57.23,23.25A158.44,158.44,0,0,1,67.39,38.67C69,41.3,70.47,43.78,72,46.06c5,7.55,9.65,11.56,17.56,8.23,11.84-5,19.39-16.07,22.62-20.81,1.18-1.73,1.57-2.29,1.89-2.4l.2.58a16,16,0,0,0-1.59,2.16c-3.26,4.78-10.88,16-22.88,21A14.07,14.07,0,0,1,84.35,56.07Z"/><path class="cls-9" d="M84.53,55.73a10.25,10.25,0,0,1-5.15-1.38c-2.53-1.43-4.94-4-7.83-8.3-1.45-2.16-2.89-4.47-4.41-6.91A160.91,160.91,0,0,0,56.67,23.73C49,14.1,40.05,13.27,29.29,21.19a77.81,77.81,0,0,0-8.23,7.18c-4.83,4.75-10.55,9.56-16.26,9.25-3.26-.18-6.23-2-9.09-5.47l.47-.39c2.75,3.36,5.58,5.08,8.66,5.25,4.35.24,9.07-2.47,15.79-9.07a76.18,76.18,0,0,1,8.3-7.24C40,12.54,49.24,13.41,57.15,23.35A165.11,165.11,0,0,1,67.66,38.81c1.52,2.44,3,4.75,4.4,6.9,5,7.49,9.69,11.49,17.47,8.33,11.39-4.63,18.73-14.87,22.26-19.8,1.33-1.85,1.89-2.61,2.3-2.75l.19.58a15.13,15.13,0,0,0-2,2.53c-3.56,5-11,15.31-22.53,20A13.89,13.89,0,0,1,84.53,55.73Z"/><path class="cls-10" d="M84.73,55.4A10.44,10.44,0,0,1,79.46,54c-2.53-1.46-4.87-3.93-7.83-8.26-1.36-2-2.72-4.11-4.16-6.34A159.87,159.87,0,0,0,56.58,23.85c-7.74-9.46-16.42-10.17-27.32-2.25a81.86,81.86,0,0,0-8.25,7C14.23,35.16,9.4,37.81,4.88,37.53c-3.27-.21-6.25-2-9.1-5.53l.48-.39C-1,35,1.83,36.72,4.92,36.91c5.48.34,11.25-4.47,15.66-8.7A81,81,0,0,1,28.9,21.1c5-3.62,9.43-5.43,13.62-5.53,5.26-.12,10.15,2.53,14.54,7.89A160.45,160.45,0,0,1,68,39c1.44,2.23,2.79,4.34,4.15,6.33,5.07,7.42,9.74,11.42,17.38,8.43,11-4.31,18.37-14.12,21.91-18.83,1.5-2,2.19-2.89,2.69-3.06l.19.58a15.52,15.52,0,0,0-2.39,2.85c-3.57,4.76-11,14.66-22.17,19A13.63,13.63,0,0,1,84.73,55.4Z"/><path class="cls-11" d="M84.89,55.09c-5.22,0-9.07-3.81-13.18-9.72-1.25-1.81-2.5-3.68-3.81-5.67A165.45,165.45,0,0,0,56.5,24C48.78,14.82,40.11,14.2,29.23,22A84.45,84.45,0,0,0,21,28.93c-4.47,4.17-10.34,8.91-16,8.5-3.27-.23-6.24-2-9.08-5.57l.48-.39C-.93,34.84,1.89,36.59,5,36.81c4.25.3,9-2.27,15.56-8.33a83.35,83.35,0,0,1,8.33-7c5-3.58,9.43-5.38,13.59-5.51,5.24-.17,10.13,2.37,14.52,7.57a168,168,0,0,1,11.44,15.8c1.31,2,2.56,3.85,3.81,5.65,5.1,7.36,9.78,11.35,17.28,8.53,10.64-4,17.75-13,21.57-17.91,1.66-2.11,2.48-3.13,3.07-3.32l.2.59c-.44.14-1.52,1.52-2.78,3.12-3.86,4.9-11,14-21.84,18.1A13.69,13.69,0,0,1,84.89,55.09Z"/><path class="cls-12" d="M85.11,54.76C79.87,54.76,76,51,71.8,45c-1.11-1.56-2.21-3.16-3.37-4.85a170,170,0,0,0-12-16.1C46.3,12.48,36,17.57,29.2,22.41a90,90,0,0,0-8.29,6.8c-6.6,6-11.5,8.48-15.91,8.13-3.27-.26-6.24-2.1-9.07-5.63l.49-.39C-.86,34.7,2,36.47,5.05,36.71c4.22.34,9-2.12,15.44-8a87.09,87.09,0,0,1,8.35-6.85c5-3.53,9.43-5.33,13.57-5.5,5.22-.21,10.09,2.23,14.48,7.26A170.79,170.79,0,0,1,69,39.81c1.16,1.69,2.26,3.29,3.36,4.85C77.59,52.14,82.1,56,89.5,53.29c10.31-3.72,17.42-12.38,21.24-17,1.7-2.06,2.72-3.31,3.44-3.55l.2.6c-.54.18-1.69,1.58-3.15,3.35-3.86,4.7-11,13.44-21.52,17.22A13.7,13.7,0,0,1,85.11,54.76Z"/><path class="cls-13" d="M85.33,54.43c-5.25,0-9.19-3.81-13.45-9.75-.91-1.26-1.8-2.52-2.74-3.86A172,172,0,0,0,56.33,24.19C46.25,13,36,18.05,29.18,22.82a93.3,93.3,0,0,0-8.32,6.67c-6.55,5.76-11.41,8.15-15.79,7.76C1.79,37-1.18,35.1-4,31.57l.5-.4C-.8,34.56,2,36.34,5.12,36.62c4.19.37,8.92-2,15.32-7.6a92.71,92.71,0,0,1,8.37-6.72c7-4.91,17.58-10.1,28,1.46A173.86,173.86,0,0,1,69.65,40.45l2.74,3.86c5.33,7.42,9.84,11.23,17.1,8.72,10-3.44,16.84-11.41,20.93-16.17,1.79-2.09,3-3.46,3.79-3.74l.2.6c-.65.22-1.91,1.69-3.51,3.56-4.13,4.8-11,12.85-21.2,16.36A13.59,13.59,0,0,1,85.33,54.43Z"/><path class="cls-14" d="M85.55,54.1a10.92,10.92,0,0,1-5.79-1.68c-3-1.85-5.64-5.12-7.8-8.08l-1.9-2.62A178.91,178.91,0,0,0,56.25,24.3c-10-10.78-20.28-5.77-27.1-1.07a97.65,97.65,0,0,0-8.34,6.54c-6.49,5.54-11.33,7.82-15.68,7.39-3.28-.32-6.24-2.19-9-5.74l.5-.4c2.69,3.4,5.51,5.2,8.62,5.51,4.16.4,8.85-1.83,15.19-7.24a99.06,99.06,0,0,1,8.4-6.59c7-4.84,17.55-10,27.93,1.16A177.26,177.26,0,0,1,70.58,41.35L72.48,44c5.37,7.36,9.87,11.16,17,8.82C99.22,49.59,106,42,110.1,37.43c1.94-2.16,3.21-3.59,4.14-3.9l.21.6c-.77.26-2.14,1.79-3.87,3.73-4.12,4.59-11,12.29-20.9,15.53A13.28,13.28,0,0,1,85.55,54.1Z"/><path class="cls-15" d="M85.74,53.78c-5.86,0-9.85-4.6-13.7-9.79l-.73-1A182.36,182.36,0,0,0,56.17,24.42c-9.88-10.24-19.64-5.8-27-.79C26,25.71,23.3,28,20.75,30.05c-6.43,5.32-11.22,7.49-15.55,7-3.29-.35-6.25-2.25-9-5.8l.51-.4c2.68,3.41,5.5,5.23,8.61,5.56,4.14.44,8.79-1.68,15.07-6.88,2.56-2.12,5.32-4.37,8.42-6.46,5.1-3.45,9.38-5.18,13.49-5.46,5.24-.34,9.94,1.72,14.38,6.33a182.18,182.18,0,0,1,15.2,18.66l.73,1c5.42,7.3,9.92,11.1,16.91,8.92,9.48-2.94,16-9.94,20.33-14.57,2-2.13,3.44-3.68,4.47-4l.21.61c-.88.3-2.35,1.87-4.21,3.86-4.37,4.68-11,11.75-20.61,14.75A13.26,13.26,0,0,1,85.74,53.78Z"/><path class="cls-16" d="M86,53.46c-5.88,0-9.93-4.61-13.86-9.81a177.23,177.23,0,0,0-16-19.12c-9.84-9.83-19.6-5.43-27-.49-3.22,2.15-6.21,4.54-8.39,6.29C14.33,35.44,9.57,37.5,5.27,37c-3.3-.38-6.26-2.3-9-5.87l.51-.4C-.59,34.15,2.23,36,5.35,36.35c4.11.48,8.72-1.53,14.94-6.53,2.19-1.75,5.19-4.16,8.44-6.32,5.11-3.41,9.39-5.14,13.47-5.44,5.21-.4,9.91,1.57,14.35,6A178.35,178.35,0,0,1,72.64,43.26c5.6,7.41,9.94,11,16.82,9,9.24-2.71,15.74-9.39,20.05-13.81,2.12-2.17,3.65-3.74,4.8-4.13l.2.62c-1,.33-2.56,1.94-4.53,4-4.36,4.47-10.93,11.22-20.33,14A13,13,0,0,1,86,53.46Z"/><path class="cls-17" d="M86.22,53.15c-5.9,0-10-4.63-14-9.84A162.9,162.9,0,0,0,56,24.64c-9.79-9.43-19.54-5.06-26.94-.19-3.09,2-5.87,4.19-8.33,6.1l-.08.06c-5.18,4-9.31,6-13,6.35-4.25.36-8-1.59-11.37-6l.52-.41c3.25,4.19,6.78,6.07,10.8,5.73,3.54-.3,7.55-2.27,12.63-6.22l.08-.06c2.46-1.92,5.26-4.09,8.37-6.13,7.61-5,17.63-9.49,27.76.27A165.1,165.1,0,0,1,72.73,42.91c5.64,7.35,10,11,16.72,9.12,9-2.48,15.5-8.86,19.78-13.08,2.23-2.19,3.84-3.78,5.11-4.2l.21.62c-1.12.38-2.77,2-4.86,4.05-4.33,4.27-10.88,10.72-20.06,13.24A12.48,12.48,0,0,1,86.22,53.15Z"/><path class="cls-18" d="M86.38,52.85c-5.83,0-9.88-4.49-14.09-9.89a149,149,0,0,0-16.37-18.2c-9.75-9-19.49-4.7-26.88.09-2.95,1.91-5.62,3.92-8,5.7l-.45.34c-5.18,3.89-9.3,5.81-13,6-4.21.26-7.89-1.73-11.25-6.08l.53-.4C3,38.28,9.7,38.26,20.2,30.36l.46-.34c2.37-1.78,5.05-3.81,8-5.72,7.59-4.93,17.61-9.38,27.69,0A149.52,149.52,0,0,1,72.81,42.55c4.8,6.16,9.37,11.1,16.64,9.23,8.8-2.27,15-8.11,19.52-12.37,2.25-2.12,4-3.79,5.4-4.26l.21.63c-1.24.42-3,2-5.16,4.11C105.11,44,98.58,50.11,89.61,52.42A13.06,13.06,0,0,1,86.38,52.85Z"/><path class="cls-19" d="M86.63,52.54c-5.84,0-10-4.5-14.26-9.92A138.71,138.71,0,0,0,55.84,24.87c-9.71-8.64-19.44-4.33-26.83.39C26.22,27,23.66,28.9,21.4,30.55l-.86.62C9.86,38.94,2.65,38.8-3.55,30.7l.53-.41c3.17,4.14,6.63,6.08,10.56,5.92,3.55-.13,7.56-1.91,12.61-5.58L21,30c2.27-1.65,4.84-3.52,7.65-5.32,7.59-4.84,17.59-9.26,27.64-.32A139.9,139.9,0,0,1,72.89,42.2c4.85,6.11,9.44,11,16.55,9.33,8.61-2.05,14.78-7.62,19.28-11.69,2.34-2.11,4.19-3.78,5.68-4.28l.21.63c-1.35.46-3.16,2.09-5.44,4.15-4.56,4.11-10.8,9.75-19.58,11.84A12.52,12.52,0,0,1,86.63,52.54Z"/><path class="cls-20" d="M86.89,52.24c-5.86,0-10-4.52-14.44-10A129,129,0,0,0,55.76,25c-9.6-8.21-18.93-4.26-26.78.68-2.63,1.65-5.07,3.37-7.22,4.89l-1.27.89c-10.64,7.47-17.81,7.2-24-.9l.54-.41c3.13,4.12,6.54,6.08,10.45,6,3.55-.06,7.55-1.73,12.59-5.27L21.37,30c2.16-1.53,4.61-3.25,7.25-4.92C33.77,21.86,38,20.15,42,19.71c5.14-.57,9.78,1,14.2,4.77A129.62,129.62,0,0,1,73,41.85c5.07,6.27,9.5,10.95,16.46,9.43,8.43-1.85,14.58-7.15,19.06-11,2.43-2.09,4.34-3.75,5.94-4.28l.22.64c-1.48.49-3.35,2.11-5.72,4.15-4.54,3.92-10.76,9.29-19.36,11.18A12.72,12.72,0,0,1,86.89,52.24Z"/><path class="cls-21" d="M87.07,52c-5.8,0-9.91-4.38-14.54-10A119.66,119.66,0,0,0,55.68,25.1c-9.56-7.82-18.87-3.89-26.73,1-2.45,1.52-4.76,3.1-6.79,4.49l-1.72,1.17c-5.15,3.49-9.27,5.1-13,5.07-4.09,0-7.64-2.12-10.86-6.4l.54-.41C3,37.74,9.83,38.09,20.06,31.17L21.78,30c2-1.4,4.34-3,6.81-4.51C33.75,22.3,38,20.59,42,20.12c5.12-.61,9.76.85,14.16,4.46a119.94,119.94,0,0,1,17,16.92c5.11,6.23,9.56,10.88,16.36,9.53,8.27-1.65,14.39-6.7,18.86-10.39,2.5-2.06,4.48-3.69,6.18-4.27l.22.65c-1.59.53-3.52,2.13-6,4.15C104.19,44.9,98,50,89.55,51.69A12,12,0,0,1,87.07,52Z"/><path class="cls-22" d="M87.34,51.65c-5.82,0-10-4.4-14.73-10.06a109,109,0,0,0-17-16.37c-9.5-7.44-18.82-3.54-26.68,1.26-2.27,1.39-4.43,2.82-6.34,4.08L20.38,32c-5.13,3.36-9.26,4.87-13,4.75-4.05-.13-7.56-2.25-10.74-6.5l.55-.41C3,37.6,9.84,38.08,20,31.44L22.2,30c1.91-1.27,4.08-2.7,6.37-4.1C36.63,21,46.19,17,56,24.68A109.94,109.94,0,0,1,73.14,41.15c5.33,6.38,9.62,10.81,16.27,9.63,8.12-1.45,14.22-6.26,18.68-9.77,2.46-1.94,4.59-3.62,6.41-4.23l.21.65c-1.69.57-3.78,2.22-6.2,4.12-4.51,3.55-10.69,8.42-19,9.9A11.89,11.89,0,0,1,87.34,51.65Z"/><path class="cls-23" d="M87.54,51.37c-5.76,0-9.86-4.26-14.84-10.12A101.68,101.68,0,0,0,55.52,25.33c-9.45-7-18.76-3.17-26.62,1.56-2.09,1.25-4.09,2.54-5.86,3.67l-2.71,1.73c-5.06,3.19-9.3,4.63-13,4.43-4-.22-7.48-2.38-10.62-6.61l.56-.41c5.77,7.77,12.54,8.37,22.66,2L22.67,30c1.77-1.14,3.77-2.43,5.87-3.69,8.06-4.84,17.62-8.81,27.39-1.51a101.8,101.8,0,0,1,17.29,16c5.39,6.34,9.7,10.75,16.19,9.72,8-1.25,13.81-5.64,18.51-9.16,2.52-1.9,4.7-3.53,6.61-4.17l.22.65c-1.81.61-3.94,2.21-6.42,4.07-4.75,3.57-10.67,8-18.81,9.3A12.38,12.38,0,0,1,87.54,51.37Z"/><path class="cls-24" d="M87.82,51.08c-5.77,0-9.94-4.27-15-10.18A93.94,93.94,0,0,0,55.44,25.45c-9.39-6.68-18.7-2.81-26.57,1.84-1.89,1.12-3.64,2.21-5.33,3.27-1.15.71-2.23,1.39-3.26,2C10,38.81,2.73,38-3.18,30l.56-.42C3.11,37.34,9.85,38.06,19.92,32c1-.62,2.11-1.3,3.25-2,1.7-1.05,3.45-2.15,5.34-3.27,8.07-4.77,17.62-8.72,27.33-1.81A94,94,0,0,1,73.31,40.45c5.6,6.49,9.75,10.68,16.09,9.82,7.85-1.06,13.68-5.23,18.37-8.58,2.57-1.84,4.78-3.42,6.79-4.1l.22.66a29.53,29.53,0,0,0-6.6,4c-4.75,3.4-10.67,7.63-18.68,8.72A14.06,14.06,0,0,1,87.82,51.08Z"/><path class="cls-25" d="M88.1,50.8c-6.25,0-10.62-5-15.24-10.24a87.6,87.6,0,0,0-17.5-15c-9.3-6.28-18.24-2.68-26.52,2.14-1.67,1-3.24,1.92-4.75,2.84s-2.66,1.61-3.87,2.32c-10.25,6-17.45,5-23.33-3l.57-.41c2.92,4,6.15,6.14,9.86,6.53,3.54.36,7.64-.84,12.55-3.69,1.2-.7,2.49-1.48,3.85-2.31,1.52-.92,3.09-1.87,4.76-2.85,8.08-4.7,17.63-8.63,27.27-2.11A87.79,87.79,0,0,1,73.39,40.1c4.82,5.49,9.37,10.68,16,9.92,7.73-.87,13.57-4.84,18.25-8a31.67,31.67,0,0,1,6.94-4l.22.67a31.3,31.3,0,0,0-6.76,3.91c-4.75,3.23-10.67,7.25-18.58,8.14A10.59,10.59,0,0,1,88.1,50.8Z"/><path class="cls-26" d="M88.34,50.53c-6.19,0-10.48-4.8-15.4-10.31A82.17,82.17,0,0,0,55.28,25.68c-9.23-5.91-18.18-2.33-26.47,2.43-1.44.82-2.8,1.62-4.12,2.4-1.6.95-3.12,1.85-4.52,2.63C10,38.82,2.81,37.75-3,29.68l.58-.42C3.13,37,10,38,19.82,32.52c1.4-.78,2.91-1.67,4.51-2.62,1.32-.78,2.69-1.59,4.13-2.41,3.56-2,8.29-4.49,13.26-5.31a19.15,19.15,0,0,1,13.94,2.9A82.13,82.13,0,0,1,73.47,39.75c5.08,5.69,9.48,10.6,15.92,10,7.64-.69,13.49-4.45,18.18-7.48a34.49,34.49,0,0,1,7.05-3.88l.23.67a34.08,34.08,0,0,0-6.9,3.8c-4.76,3.07-10.68,6.89-18.5,7.6C89.08,50.51,88.7,50.53,88.34,50.53Z"/><path class="cls-27" d="M88.63,50.26c-6.17,0-10.56-4.83-15.6-10.39A76,76,0,0,0,55.2,25.79c-9.16-5.54-18.11-2-26.42,2.72l-3.42,2c-1.87,1.07-3.64,2.09-5.25,3-5,2.68-9.26,3.7-13,3.13S0,33.66-3,29.53l.58-.42C3.18,36.86,10,38,19.78,32.78c1.6-.85,3.36-1.86,5.23-2.93,1.1-.64,2.23-1.29,3.42-2,8.5-4.79,17.67-8.44,27.14-2.71a76.55,76.55,0,0,1,18,14.21c5.35,5.89,9.58,10.55,15.83,10.13,7.57-.5,13.19-3.93,18.14-7a38.93,38.93,0,0,1,7.13-3.75l.23.68a37.59,37.59,0,0,0-7,3.68c-4.77,2.92-10.72,6.55-18.46,7.07Z"/><path class="cls-28" d="M88.91,50c-6.14,0-10.52-4.74-15.56-10.21l-.24-.26c-5.79-6.27-12.06-10.25-18-13.62-9.09-5.17-18.05-1.61-26.38,3l-2.64,1.47C24,31.61,21.9,32.76,20.06,33.7c-5,2.55-9.26,3.47-13,2.81s-7.06-3-10-7.13L-2.3,29c5.53,7.78,12.32,9,22,4.08,1.83-.93,3.87-2.07,6-3.29l2.64-1.47c8.52-4.72,17.69-8.36,27.08-3,6,3.4,12.3,7.42,18.16,13.76l.24.26c5.27,5.71,9.43,10.23,15.5,10,7.51-.31,13.15-3.58,18.13-6.46a42.43,42.43,0,0,1,7.17-3.59l.23.68a42.16,42.16,0,0,0-7,3.54C102.82,46.36,97.1,49.67,89.41,50Z"/><path class="cls-29" d="M88.83,49.76c-5.75,0-9.93-4.47-14.75-9.62l-.89-1C67.76,33.41,62,29.75,55.05,26c-9-4.82-18-1.26-26.33,3.3L27,30.3C24.45,31.67,22.09,33,20,34,10.1,38.8,2.85,37.29-2.81,29.24l.59-.42C3.28,36.64,10,38,19.69,33.32c2.07-1,4.42-2.29,6.91-3.66l1.78-1c8.53-4.66,17.7-8.28,27-3.31,7,3.76,12.83,7.46,18.33,13.31l.89,1c4.85,5.18,9,9.67,14.75,9.37,7.45-.38,13.14-3.38,18.15-6a49.44,49.44,0,0,1,7.21-3.36l.23.69a49.41,49.41,0,0,0-7.1,3.31C102.77,46.32,97,49.36,89.4,49.75Z"/><path class="cls-30" d="M89.09,49.51c-5.71,0-9.86-4.38-14.65-9.43q-.57-.61-1.17-1.23c-5.4-5.67-11.22-9.18-18.3-12.71-8.42-4.2-16.59-1.6-26.27,3.59l-.79.42c-2.88,1.55-5.6,3-8,4.11C10.1,38.82,2.89,37.18-2.74,29.09l.6-.42C3.33,36.53,10.05,38,19.64,33.59c2.34-1.08,5.06-2.54,7.93-4.08l.78-.42c8.55-4.59,17.74-8.2,26.95-3.6,7.14,3.56,13,7.11,18.5,12.85.4.41.79.83,1.17,1.23,4.76,5,8.87,9.35,14.39,9.2,7.46-.19,13.21-3.05,18.29-5.58a57.85,57.85,0,0,1,7.1-3.16l.23.7a56.89,56.89,0,0,0-7,3.12c-5.14,2.55-11,5.46-18.59,5.65Z"/><path class="cls-31" d="M90.37,49.28l-1,0c-5.8-.21-10-4.59-14.92-9.66l-1.06-1.1c-5.42-5.57-11.08-8.82-18.46-12.24C45.64,22,36.5,26,28.67,30.14c-3,1.58-6.11,3.22-8.77,4.4-9.79,4.31-17,2.54-22.57-5.59l.61-.42C3.31,36.32,10.19,38,19.6,33.86c2.64-1.16,5.73-2.8,8.72-4.37,8-4.22,17.32-8.34,26.89-3.9,7.46,3.46,13.18,6.74,18.67,12.4.37.37.72.74,1.07,1.1,5,5.16,8.92,9.23,14.42,9.43,7.46.28,13-2.43,18.46-5.05a59.11,59.11,0,0,1,7-3l.23.7a61.58,61.58,0,0,0-6.86,3C103.16,46.55,97.53,49.28,90.37,49.28Z"/><path class="cls-32" d="M91.18,49.08q-.92,0-1.86-.06c-5.6-.36-9.74-4.59-14.53-9.48q-.66-.69-1.35-1.38C67.43,32.08,61,29,54.82,26.37c-9.15-3.93-18.31.1-26.18,4.18-3,1.54-6.11,3.14-8.8,4.27C10.11,38.89,3,37-2.59,28.8l.61-.42C3.36,36.21,10.21,38,19.55,34.13c2.66-1.11,5.78-2.71,8.75-4.24,8-4.16,17.36-8.26,26.81-4.2,6.2,2.66,12.76,5.77,18.86,12q.69.69,1.35,1.38c4.68,4.78,8.73,8.91,14.05,9.25,7.5.49,13.2-2.11,18.71-4.62a68.14,68.14,0,0,1,6.73-2.8l.24.7a68.74,68.74,0,0,0-6.66,2.77C103.26,46.66,98,49.08,91.18,49.08Z"/><path class="cls-33" d="M92,48.9c-.87,0-1.76,0-2.68-.13-5.4-.5-9.44-4.58-14.12-9.3-.54-.54-1.09-1.1-1.65-1.65-6-6-12.58-8.89-18.77-11.33-9-3.57-17.87.25-26.14,4.46-3,1.52-6.1,3.07-8.83,4.15-5,2-9.21,2.35-13,1.19C3.25,35.18.2,32.68-2.52,28.65l.62-.42c5.32,7.89,12.12,9.85,21.41,6.17,2.7-1.07,5.8-2.61,8.76-4.12,8.05-4.1,17.43-8.17,26.75-4.49,6.27,2.47,12.9,5.4,19,11.5l1.65,1.65c4.58,4.62,8.53,8.61,13.66,9.09,7.59.7,13.43-1.81,19.08-4.23,2.08-.89,4.22-1.81,6.4-2.55l.24.71c-2.15.73-4.28,1.64-6.34,2.53C103.68,46.66,98.47,48.9,92,48.9Z"/><path class="cls-34" d="M92.77,48.74a30.38,30.38,0,0,1-3.5-.21c-5.21-.64-9.15-4.58-13.72-9.13-.64-.63-1.28-1.28-2-1.93C67.54,31.54,61.19,29,54.67,26.6c-8.9-3.2-17.77.59-26.09,4.76a95.29,95.29,0,0,1-8.85,4c-5,1.85-9.21,2.13-13,.86C3.24,35.05.23,32.52-2.45,28.51l.63-.42c5.3,7.93,12.06,10,21.28,6.58a90.18,90.18,0,0,0,8.78-4c8.47-4.23,17.5-8.09,26.69-4.79,6.6,2.38,13,5,19.2,11l2,1.93c4.47,4.46,8.33,8.31,13.28,8.92,7.71.94,13.47-1.39,19.58-3.86,1.91-.77,3.9-1.57,5.93-2.26l.24.72c-2,.68-4,1.47-5.89,2.24C104.2,46.65,99,48.74,92.77,48.74Z"/><path class="cls-35" d="M93.68,48.62a28.84,28.84,0,0,1-4.44-.34c-5-.77-8.85-4.56-13.31-9-.72-.72-1.47-1.46-2.24-2.2-6.1-5.87-12.51-8.28-19.09-10.41-8.76-2.85-17.67.93-26,5.05a85.13,85.13,0,0,1-8.88,3.89c-9.41,3.31-16.63.92-22-7.3l.63-.42c5.27,8,12,10.22,21.16,7a80.59,80.59,0,0,0,8.8-3.86c8.51-4.18,17.58-8,26.61-5.09C61.5,28.16,68,30.6,74.21,36.58c.78.75,1.53,1.49,2.26,2.21,4.36,4.29,8.12,8,12.89,8.74,7.88,1.21,13.88-1.09,20.24-3.52,1.71-.65,3.48-1.33,5.3-1.94l.25.72c-1.82.61-3.58,1.28-5.28,1.93C104.65,46.72,99.67,48.62,93.68,48.62Z"/><path class="cls-36" d="M94.61,48.54A28.73,28.73,0,0,1,89.22,48c-4.81-.89-8.56-4.54-12.89-8.77-.83-.8-1.68-1.64-2.56-2.47-6.15-5.82-12.62-8-19.25-10-8.6-2.5-17.21,1.1-26,5.34a76.62,76.62,0,0,1-8.9,3.77C10.26,39,3.09,36.49-2.3,28.22l.64-.42c5.25,8.05,11.93,10.41,21,7.41a75,75,0,0,0,8.81-3.73c8.93-4.31,17.68-8,26.55-5.39,6.72,2,13.28,4.2,19.56,10.14.88.84,1.74,1.68,2.56,2.48,4.25,4.14,7.92,7.72,12.5,8.57,8.11,1.51,14.14-.69,21.11-3.22,1.44-.53,2.93-1.07,4.47-1.59l.24.73q-2.3.78-4.44,1.58C105.27,46.76,100.38,48.54,94.61,48.54Z"/><path class="cls-37" d="M95.47,48.48a29.49,29.49,0,0,1-6.28-.69c-4.61-1-8.25-4.53-12.46-8.6-.92-.89-1.88-1.82-2.88-2.74-6.21-5.78-12.72-7.8-19.4-9.51-8.44-2.16-16.75,1.28-26,5.64a68.21,68.21,0,0,1-8.93,3.64c-9.29,2.85-16.42.19-21.79-8.15l.65-.42c5.16,8,12,10.57,20.91,7.83a66.7,66.7,0,0,0,8.83-3.6C37.51,27.45,46,24,54.64,26.2,61.42,27.93,68,30,74.38,35.88c1,.93,2,1.86,2.89,2.76,4.12,4,7.69,7.43,12.09,8.39,8.41,1.84,14.83-.4,22.27-3L115,42.88l.24.73-3.32,1.15C106.27,46.72,101.23,48.48,95.47,48.48Z"/><path class="cls-38" d="M96.41,48.47a29.24,29.24,0,0,1-7.24-.93c-4.42-1.12-8-4.5-12-8.41q-1.53-1.49-3.2-3c-6.29-5.74-12.84-7.55-19.56-9-8.92-2-18.34,2.4-25.92,5.93a63.52,63.52,0,0,1-9,3.51c-9.23,2.63-16.31-.17-21.65-8.58l.65-.42c5.13,8.08,11.93,10.78,20.79,8.25a63,63,0,0,0,8.85-3.47c7.67-3.57,17.23-8,26.41-6,6.82,1.51,13.48,3.35,19.91,9.23,1.13,1,2.19,2,3.22,3,4,3.84,7.46,7.15,11.68,8.22,8.79,2.22,15.42,0,23.81-2.88l1.83-.62.25.73-1.83.63C107.33,46.71,102.16,48.47,96.41,48.47Z"/><path class="cls-39" d="M97.38,48.5a29.26,29.26,0,0,1-8.24-1.21c-4.22-1.21-7.63-4.46-11.58-8.22C76.43,38,75.26,36.88,74,35.76c-6.37-5.72-13-7.33-19.71-8.59-8.68-1.62-17.82,2.55-25.87,6.22a57.13,57.13,0,0,1-9,3.38c-9.18,2.43-16.22-.52-21.53-9l.66-.41c5.11,8.15,11.87,11,20.67,8.66a58,58,0,0,0,8.86-3.34C36.27,29,45.53,24.73,54.45,26.4c6.87,1.28,13.57,2.92,20.09,8.78C75.79,36.3,77,37.42,78.1,38.5c3.88,3.69,7.22,6.88,11.26,8,9.28,2.68,16.15.36,25.67-2.85l.25.75C108.61,46.69,103.21,48.5,97.38,48.5Z"/><path class="cls-40" d="M98.28,48.56a29.2,29.2,0,0,1-9.17-1.51c-4-1.31-7.31-4.43-11.12-8-1.23-1.18-2.52-2.39-3.89-3.6-6.45-5.7-13.08-7.1-19.87-8.14-8.4-1.28-17.12,2.62-25.55,6.4l-.27.12a53.22,53.22,0,0,1-9,3.25C10.28,39.27,3.28,36.18-2,27.63l.67-.42c5.09,8.23,11.8,11.2,20.54,9.08a52,52,0,0,0,8.88-3.21l.28-.12c8.53-3.82,17.36-7.77,26-6.46C61.26,27.56,68,29,74.62,34.83c1.39,1.22,2.67,2.44,3.92,3.61,3.74,3.54,7,6.6,10.82,7.86,9.1,3,15.78,1.14,25.7-2.2l.25.75C109,47,103.72,48.56,98.28,48.56Z"/><path class="cls-41" d="M99.18,48.69A28.92,28.92,0,0,1,89.09,46.8c-3.83-1.39-7-4.38-10.65-7.83-1.35-1.27-2.75-2.59-4.26-3.9-6.54-5.68-13.2-6.87-20-7.67-8.12-1-16.58,2.76-24.77,6.36l-1,.45a49.43,49.43,0,0,1-9,3.12A18.27,18.27,0,0,1,6.38,35.92a22.36,22.36,0,0,1-8.31-8.44l.68-.41c5.05,8.3,11.73,11.41,20.41,9.49a49.72,49.72,0,0,0,8.9-3.08l1-.45c8.29-3.64,16.85-7.41,25.19-6.42,6.66.78,13.73,2,20.45,7.86,1.52,1.32,2.92,2.65,4.27,3.92,3.6,3.39,6.71,6.32,10.38,7.66,8.65,3.15,15.19,2,25.73-1.54l.26.75C109,47.41,104,48.69,99.18,48.69Z"/><path class="cls-42" d="M100.11,48.84a28.9,28.9,0,0,1-11-2.29c-3.62-1.46-6.65-4.31-10.17-7.62-1.46-1.37-3-2.79-4.62-4.2-6.65-5.66-13.61-6.67-20.18-7.22-7.82-.65-16,2.89-23.94,6.33l-1.8.77a46.16,46.16,0,0,1-9.08,3A18.25,18.25,0,0,1,6.32,35.87a23.34,23.34,0,0,1-8.18-8.54l.69-.41c5,8.39,11.67,11.63,20.29,9.91A46.52,46.52,0,0,0,28,33.88l1.8-.78c8-3.47,16.31-7.06,24.33-6.39,6.69.56,13.8,1.59,20.63,7.41C76.45,35.54,78,37,79.44,38.35c3.46,3.25,6.44,6,9.92,7.46,8.89,3.59,15.65,2.51,25.77-.9l.25.76C109.54,47.64,104.79,48.84,100.11,48.84Z"/><path class="cls-43" d="M100.83,49A28.1,28.1,0,0,1,89,46.3c-3.41-1.52-6.31-4.24-9.67-7.39-1.57-1.48-3.21-3-5-4.52C68.21,29.25,61.58,27,54.07,27.62c-8.87.69-18,4.13-25.75,7.4a44,44,0,0,1-9.1,2.87c-8.82,1.58-15.88-2-21-10.7l.7-.41c5,8.48,11.6,11.85,20.16,10.32A43.45,43.45,0,0,0,28,34.28c7.82-3.3,17-6.76,26-7.46,7.73-.61,14.55,1.67,20.86,7,1.82,1.53,3.46,3.06,5,4.55,3.3,3.1,6.15,5.77,9.44,7.24,8.08,3.6,14.58,3.54,25.8-.24l.25.77C109.6,48.05,105,49,100.83,49Z"/><path class="cls-44" d="M101.61,49.26A27.8,27.8,0,0,1,89,46.05c-3.2-1.57-6.09-4.28-9.15-7.15-1.7-1.59-3.45-3.24-5.42-4.85A26.4,26.4,0,0,0,54,27.73c-7.88.83-16,3.68-25.71,7.7a41.84,41.84,0,0,1-9.13,2.74C10.4,39.56,3.38,35.81-1.71,27l.7-.41C4,35.2,10.52,38.71,19,37.37a41.32,41.32,0,0,0,9-2.69c9.8-4.05,18-6.92,25.93-7.76a27.19,27.19,0,0,1,21,6.5c2,1.63,3.75,3.29,5.46,4.89,3.14,2.95,5.85,5.49,9,7,8.25,4,14.77,4.14,25.83.41l.26.77C110,48.33,105.63,49.26,101.61,49.26Z"/><path class="cls-45" d="M102.31,49.52c-4.56,0-8.66-1.23-13.33-3.72-3-1.61-5.73-4.17-8.62-6.89-1.82-1.71-3.71-3.48-5.84-5.21a25.57,25.57,0,0,0-20.6-5.86c-8.08,1.07-16.4,4.25-25.66,8a38.87,38.87,0,0,1-9.16,2.62c-8.7,1.2-15.68-2.69-20.74-11.56l.71-.4C4,35,10.65,38.79,19,37.64a38.6,38.6,0,0,0,9-2.56c9.31-3.77,17.68-7,25.87-8a26.6,26.6,0,0,1,21.21,6c2.16,1.74,4,3.52,5.89,5.25,2.85,2.67,5.54,5.2,8.44,6.76,8.39,4.48,14.91,4.74,25.86,1.05l.26.78A41.44,41.44,0,0,1,102.31,49.52Z"/><path class="cls-46" d="M102.87,49.77c-.68,0-1.35,0-2-.08A27.78,27.78,0,0,1,89,45.55a47.09,47.09,0,0,1-8.07-6.61c-1.95-1.84-4-3.74-6.28-5.58C68.2,28.28,61.66,27.52,53.81,28c-6.59.37-13.6,3.3-20.37,6.14-1.71.72-3.47,1.46-5.21,2.15A37.87,37.87,0,0,1,19,38.73c-8.65,1-15.58-3-20.61-12l.72-.4C4,35,10.66,38.88,19,37.91a36.87,36.87,0,0,0,9-2.44c1.73-.68,3.49-1.42,5.19-2.14C40,30.47,47,27.5,53.76,27.13c8-.44,14.75.34,21.35,5.59,2.35,1.86,4.38,3.77,6.34,5.62a46.28,46.28,0,0,0,7.91,6.49c7.37,4.29,13.68,5.83,25.89,1.71l.26.78A39.7,39.7,0,0,1,102.87,49.77Z"/><path class="cls-47" d="M103.35,50.08c-5.47,0-9.73-1.83-14.43-4.79A51.23,51.23,0,0,1,81.43,39a88.37,88.37,0,0,0-6.75-6c-6.51-5.08-13.08-5.66-20.94-5-6.25.56-12.61,3.23-19.34,6.05-2,.85-4.13,1.73-6.2,2.54A36,36,0,0,1,19,39c-8.61.83-15.5-3.35-20.49-12.41l.73-.4c4.82,8.74,11.44,12.78,19.68,12a34.74,34.74,0,0,0,9-2.31c2.06-.8,4.15-1.68,6.18-2.52,6.49-2.73,13.2-5.54,19.59-6.11,8-.72,14.79-.13,21.53,5.12,2.54,2,4.71,4,6.8,6a51.57,51.57,0,0,0,7.36,6.19C96.8,49.28,103.13,51,115.28,47l.27.78A38.23,38.23,0,0,1,103.35,50.08Z"/><path class="cls-48" d="M103.85,50.39c-5.71,0-10.1-2-15-5.35A56.24,56.24,0,0,1,82,39.09a84.51,84.51,0,0,0-7.24-6.41c-6.64-5.09-13.24-5.48-21.1-4.51-5.91.74-11.93,3.27-18.29,5.95-2.36,1-4.8,2-7.21,2.93a34,34,0,0,1-9.24,2.23c-8.56.66-15.4-3.66-20.35-12.83l.73-.4c4.78,8.85,11.36,13,19.55,12.4a33.1,33.1,0,0,0,9-2.18c2.39-.91,4.82-1.93,7.17-2.92,6.42-2.7,12.49-5.26,18.52-6,8.06-1,14.84-.58,21.71,4.67a86.34,86.34,0,0,1,7.3,6.47,55.25,55.25,0,0,0,6.79,5.87c7.47,5.1,13.82,7.09,25.94,3l.27.8A36.87,36.87,0,0,1,103.85,50.39Z"/><path class="cls-49" d="M104.29,50.72c-5.93,0-10.43-2.26-15.42-5.93a62.68,62.68,0,0,1-6.26-5.58,82,82,0,0,0-7.76-6.88c-7.16-5.38-14.44-5.13-21.25-4-5.57.89-11.24,3.29-17.23,5.84-2.69,1.14-5.47,2.31-8.23,3.34a32.18,32.18,0,0,1-9.27,2.1c-8.51.48-15.31-4-20.22-13.26l.74-.39c4.74,9,11.28,13.27,19.43,12.81a31.54,31.54,0,0,0,9-2c2.74-1,5.51-2.19,8.19-3.33,6-2.56,11.75-5,17.43-5.89,7-1.11,14.48-1.36,21.89,4.21a81.24,81.24,0,0,1,7.83,7,63.19,63.19,0,0,0,6.18,5.5c7.49,5.52,13.85,7.74,26,3.65l.26.8A35.79,35.79,0,0,1,104.29,50.72Z"/><path class="cls-50" d="M104.68,51.06c-6.14,0-10.73-2.48-15.84-6.53a70.38,70.38,0,0,1-5.6-5.15A77.08,77.08,0,0,0,74.94,32c-7.3-5.39-14.6-4.91-21.41-3.6-5.24,1-10.55,3.3-16.17,5.71-3,1.3-6.13,2.64-9.25,3.77a31.25,31.25,0,0,1-9.3,2c-8.47.3-15.23-4.3-20.09-13.69l.75-.39C4.17,34.84,10.67,39.29,18.78,39a29.85,29.85,0,0,0,9-1.92C30.91,36,34,34.61,37,33.32c5.66-2.43,11-4.73,16.34-5.76,7-1.35,14.51-1.83,22.07,3.75a78,78,0,0,1,8.4,7.47,68.56,68.56,0,0,0,5.53,5.09c7.49,6,13.86,8.39,26,4.3l.27.8A34.62,34.62,0,0,1,104.68,51.06Z"/><path class="cls-51" d="M105,51.39c-7,0-11.6-3.23-16.16-7.11-1.64-1.4-3.22-3-4.9-4.67a72.67,72.67,0,0,0-8.89-8C67.58,26.26,60.26,27,53.46,28.5c-4.9,1.12-9.86,3.28-15.11,5.57-3.34,1.47-6.8,3-10.27,4.2a29.87,29.87,0,0,1-9.33,1.85c-8.43.14-15.15-4.61-20-14.12l.77-.38C4.2,34.81,10.66,39.4,18.74,39.27a29.12,29.12,0,0,0,9.06-1.8c3.44-1.22,6.88-2.72,10.21-4.18C43.3,31,48.29,28.8,53.27,27.67c7-1.6,14.54-2.3,22.25,3.29a73,73,0,0,1,9,8c1.66,1.67,3.23,3.25,4.85,4.62,7.65,6.52,13.78,9.08,26,4.95l.27.8A33.54,33.54,0,0,1,105,51.39Z"/><path class="cls-52" d="M105.28,51.74c-7.27,0-11.89-3.5-16.49-7.72-1.39-1.26-2.74-2.65-4.17-4.12a68.49,68.49,0,0,0-9.52-8.59c-7.6-5.41-15.24-4.4-21.71-2.7a95.33,95.33,0,0,0-14,5.42c-3.67,1.64-7.46,3.33-11.29,4.65a29.06,29.06,0,0,1-9.36,1.72c-8.41,0-15.08-4.94-19.82-14.54l.77-.38c4.59,9.28,11,14,19.06,14.06h0a28,28,0,0,0,9-1.67c3.79-1.31,7.57-3,11.22-4.62a94.71,94.71,0,0,1,14.18-5.47C59.84,26,67.71,25,75.6,30.61a69.72,69.72,0,0,1,9.64,8.69c1.42,1.46,2.76,2.84,4.13,4.09,6.5,6,12.56,10.15,26.07,5.59l.27.81A32.58,32.58,0,0,1,105.28,51.74Z"/><path class="cls-53" d="M105.51,52.14a18.92,18.92,0,0,1-5.89-.91c-4-1.31-7.26-3.93-10.86-7.46-1.12-1.1-2.22-2.27-3.39-3.5A66.36,66.36,0,0,0,75.19,31c-7.75-5.41-15.4-4.17-21.87-2.25a102.64,102.64,0,0,0-13,5.27A129.77,129.77,0,0,1,28,39.09a27.71,27.71,0,0,1-9.38,1.58c-8.39-.2-15-5.24-19.7-15l.78-.38c4.53,9.41,10.91,14.28,18.94,14.48a27.06,27.06,0,0,0,9.09-1.54A130.12,130.12,0,0,0,40,33.19a103,103,0,0,1,13.12-5.3c6.67-2,14.57-3.26,22.61,2.36A66.33,66.33,0,0,1,86,39.68c1.16,1.22,2.25,2.38,3.37,3.47,6.46,6.34,12.49,10.83,26.1,6.24l.28.82A32.27,32.27,0,0,1,105.51,52.14Z"/><path class="cls-54" d="M105.74,52.51a18.54,18.54,0,0,1-6.29-1.06c-4-1.44-7-4.1-10.71-7.93-.83-.87-1.64-1.76-2.5-2.7a63.22,63.22,0,0,0-11-10.2c-6.29-4.3-12.88-4.84-22-1.8a110.28,110.28,0,0,0-12,5.09A121,121,0,0,1,28,39.49,26.8,26.8,0,0,1,18.58,41a19.35,19.35,0,0,1-12.9-5.67A32.9,32.9,0,0,1-1,25.56l.79-.37c4.48,9.53,10.81,14.54,18.81,14.89a26,26,0,0,0,9.11-1.41A118.91,118.91,0,0,0,40.9,33.12,112.4,112.4,0,0,1,53,28a32,32,0,0,1,11.43-1.94A21.07,21.07,0,0,1,75.76,29.9,65.48,65.48,0,0,1,86.89,40.23c.85.94,1.66,1.82,2.48,2.69,6.42,6.72,12.43,11.49,26.13,6.88l.28.82A31.74,31.74,0,0,1,105.74,52.51Z"/><path class="cls-55" d="M105.93,52.88c-8.82,0-13.6-5.47-18.93-11.57-3.34-3.82-6.8-7.78-11.64-11-10.82-7.27-21.67-2-33.16,3.54A110.39,110.39,0,0,1,28,39.9c-7.61,2.43-14.25,1.62-19.74-2.43-3.63-2.68-6.7-6.74-9.14-12.06l.8-.36c4.17,9.12,12.37,19,27.81,14a110.53,110.53,0,0,0,14.13-6c11.72-5.67,22.8-11,34-3.48,4.94,3.32,8.6,7.5,11.82,11.19,7.11,8.14,12.73,14.57,27.88,9.46l.27.83A30.93,30.93,0,0,1,105.93,52.88Z"/><path class="cls-56" d="M106.28,52.32c-8.59,0-13.37-5.25-18.69-11.11-3.45-3.79-7-7.71-12-10.82-10.88-6.77-21.67-1.76-33.09,3.55a111.44,111.44,0,0,1-14.34,5.87c-7.61,2.32-14.25,1.56-19.74-2.27C4.72,35,1.68,31.19-.91,26l.78-.38C6.13,38.22,15.55,42.74,27.88,39A111.45,111.45,0,0,0,42.1,33.14C53.74,27.73,64.74,22.63,76,29.65c5.11,3.18,8.72,7.14,12.2,11,7.13,7.83,12.75,14,27.42,9.07l.28.83A30.37,30.37,0,0,1,106.28,52.32Z"/><path class="cls-57" d="M106.63,51.76c-8.35,0-13.12-5-18.44-10.66C84.63,37.35,81,33.47,75.77,30.5c-11-6.27-21.67-1.5-33,3.56A113.69,113.69,0,0,1,28.3,39.72c-7.61,2.21-14.25,1.5-19.74-2.11-3.67-2.4-6.76-6-9.47-11.11l.77-.42c6.44,12.06,15.93,16.37,28.2,12.8A112.82,112.82,0,0,0,42.4,33.26c11.55-5.15,22.46-10,33.81-3.52,5.29,3,9,7,12.61,10.76,6.84,7.23,12.75,13.47,27,8.68l.28.83A29.54,29.54,0,0,1,106.63,51.76Z"/><path class="cls-58" d="M107,51.2C98.86,51.2,94.11,46.37,88.8,41,85.14,37.27,81.35,33.42,76,30.61c-11-5.77-21.67-1.23-32.93,3.57a117.74,117.74,0,0,1-14.58,5.46c-7.61,2.1-14.26,1.44-19.74-2C3.84,34.67.89,30.17-.91,27l.76-.44c6.69,11.63,16,15.61,28.39,12.19A115.44,115.44,0,0,0,42.7,33.37c11.47-4.88,22.3-9.5,33.69-3.54,5.48,2.88,9.32,6.77,13,10.54,6.83,6.94,12.73,12.93,26.46,8.3l.28.83A28.94,28.94,0,0,1,107,51.2Z"/><path class="cls-59" d="M107.34,50.64c-7.89,0-12.63-4.62-17.91-9.78-3.78-3.69-7.69-7.5-13.24-10.14-11.08-5.27-21.65-1-32.84,3.58a118.64,118.64,0,0,1-14.71,5.25c-7.62,2-14.26,1.39-19.74-1.79C4,34.92,1,30.59-.91,27.59l.75-.47C4.19,34.16,11.9,43,28.42,38.7A117,117,0,0,0,43,33.49c11.37-4.63,22.11-9,33.55-3.56,5.68,2.7,9.64,6.57,13.47,10.31,6.82,6.65,12.7,12.39,26,7.92l.28.83A28,28,0,0,1,107.34,50.64Z"/><path class="cls-60" d="M107.76,50.07a17.78,17.78,0,0,1-6.93-1.37c-4.06-1.69-7.31-4.74-10.76-8-3.89-3.66-7.92-7.44-13.67-9.9-11.14-4.78-21.62-.71-32.72,3.59a123.12,123.12,0,0,1-14.87,5C11.73,43.67,3.67,35-.9,28.13l.72-.49c4.43,6.66,12.24,15,28.78,11a122.47,122.47,0,0,0,14.76-5c11.27-4.38,21.92-8.5,33.39-3.59,5.88,2.53,10,6.36,13.92,10.07,6.79,6.37,12.66,11.87,25.46,7.56l.28.83A27.17,27.17,0,0,1,107.76,50.07Z"/><path class="cls-61" d="M108.13,49.51a17.77,17.77,0,0,1-6.76-1.31c-4-1.61-7.22-4.53-10.64-7.61-4-3.63-8.17-7.38-14.11-9.65C65.43,26.65,55,30.49,44,34.54a125.93,125.93,0,0,1-15,4.83c-17.11,4-25.25-4.21-29.88-10.7l.71-.51c4.49,6.29,12.37,14.2,29,10.36a125.27,125.27,0,0,0,14.94-4.8c11.17-4.11,21.71-8,33.21-3.6,6.09,2.33,10.31,6.14,14.38,9.82,6.76,6.09,12.6,11.36,24.94,7.2l.28.83A26.56,26.56,0,0,1,108.13,49.51Z"/><path class="cls-62" d="M108.53,48.92c-7.35,0-12.14-4.15-17.14-8.49-4.14-3.59-8.42-7.31-14.56-9.38-11.23-3.79-21.53-.2-32.43,3.61a129.36,129.36,0,0,1-15.25,4.62C21.49,40.94,14.85,40.5,9.41,38A27.65,27.65,0,0,1-.9,29.22l.7-.53C4.7,35.1,12.45,42,29,38.43a128.67,128.67,0,0,0,15.14-4.6c11-3.86,21.49-7.5,33-3.61,6.31,2.13,10.65,5.9,14.86,9.55,6.71,5.83,12.51,10.86,24.39,6.86l.28.83A25.45,25.45,0,0,1,108.53,48.92Z"/><path class="cls-63" d="M108.89,48.37c-7.12,0-11.87-4-16.82-8.11C87.8,36.7,83.4,33,77,31.15c-11.25-3.29-21.44.07-32.23,3.63a135.23,135.23,0,0,1-15.49,4.41C12.21,42.65,4.19,36-.89,29.76l.68-.55c4.92,6,12.71,12.49,29.36,9.13a133.06,133.06,0,0,0,15.38-4.4c10.93-3.6,21.25-7,32.76-3.63,6.53,1.92,11,5.66,15.34,9.28,6.67,5.57,12.42,10.38,23.85,6.53l.28.83A24.6,24.6,0,0,1,108.89,48.37Z"/><path class="cls-64" d="M109.25,47.81c-6.89,0-11.59-3.78-16.49-7.73-4.4-3.53-8.94-7.18-15.51-8.82-11.25-2.81-21.33.32-32,3.63a143.08,143.08,0,0,1-15.77,4.22C12.22,42.34,4.18,36.1-.89,30.3l.66-.57c4.92,5.62,12.72,11.67,29.56,8.52A140.27,140.27,0,0,0,45,34.05c10.78-3.35,21-6.51,32.46-3.64,6.76,1.69,11.38,5.4,15.84,9,6.61,5.32,12.32,9.91,23.3,6.21l.28.83A24,24,0,0,1,109.25,47.81Z"/><path class="cls-65" d="M109.6,47.25c-6.65,0-11.3-3.6-16.15-7.36-4.52-3.5-9.19-7.11-16-8.52C66.23,29,56.28,31.93,45.76,35a147.94,147.94,0,0,1-16.1,4c-7.86,1.35-14.31,1.08-19.73-.83A26.88,26.88,0,0,1-.88,30.85l.64-.6C5,35.8,12.54,41.09,29.51,38.15a144.42,144.42,0,0,0,16-4c10.63-3.1,20.68-6,32.13-3.65C84.64,32,89.39,35.64,94,39.2c6.54,5.07,12.19,9.45,22.73,5.89l.28.83A22.94,22.94,0,0,1,109.6,47.25Z"/><path class="cls-66" d="M110,46.69c-6.43,0-11-3.43-15.8-7s-9.46-7.06-16.48-8.22c-11.2-1.84-21,.82-31.35,3.63a155.74,155.74,0,0,1-16.5,3.83C12.18,41.72,4.4,36.68-.88,31.39l.62-.62c5.13,5.14,12.69,10,30,7.29a152.21,152.21,0,0,0,16.41-3.8c10.46-2.84,20.33-5.53,31.72-3.65C85.05,31.8,90,35.46,94.68,39c6.47,4.83,12.06,9,22.16,5.59l.28.83A22.33,22.33,0,0,1,110,46.69Z"/><path class="cls-67" d="M110.32,46.13c-6.2,0-10.73-3.26-15.45-6.66s-9.72-7-17-7.89C66.78,30.2,57.17,32.63,47,35.2a162.87,162.87,0,0,1-17,3.64C12,41.42,4.3,36.79-.87,31.93l.6-.64C4.75,36,12.26,40.5,29.87,38a163,163,0,0,0,16.91-3.62C57,31.76,66.72,29.32,78,30.71c7.48.93,12.51,4.55,17.38,8,6.39,4.6,11.91,8.57,21.58,5.31l.28.83A21.55,21.55,0,0,1,110.32,46.13Z"/><path class="cls-68" d="M110.69,45.57c-6,0-10.45-3.1-15.1-6.33-4.91-3.41-10-6.93-17.49-7.56-11-.91-20.37,1.28-30.31,3.61a174,174,0,0,1-17.62,3.46c-18.33,2.36-25.75-1.62-31-6.28l.58-.66c5.13,4.52,12.36,8.38,30.35,6.07a170.52,170.52,0,0,0,17.53-3.45c10-2.33,19.47-4.54,30.59-3.62,7.72.64,12.9,4.24,17.91,7.71,6.3,4.38,11.74,8.16,21,5l.28.83A20.56,20.56,0,0,1,110.69,45.57Z"/><path class="cls-69" d="M111.05,45c-5.78,0-10.16-2.94-14.74-6-5-3.38-10.26-6.88-18-7.21-10.77-.47-19.89,1.49-29.54,3.57a185.73,185.73,0,0,1-18.44,3.3C12.58,40.68,5,37.87-.86,33l.56-.67c5.71,4.71,13.08,7.44,30.54,5.45A184.41,184.41,0,0,0,48.59,34.5c9.71-2.09,18.88-4.06,29.76-3.59,8,.35,13.31,3.92,18.45,7.36,6.2,4.16,11.56,7.76,20.39,4.78l.28.83A20,20,0,0,1,111.05,45Z"/><path class="cls-70" d="M111.41,44.45c-5.56,0-9.87-2.79-14.37-5.7-5.17-3.36-10.53-6.83-18.51-6.86-10.43,0-19.19,1.68-28.47,3.51-6.19,1.22-12.6,2.48-19.55,3.17-16.08,1.59-24.57.23-31.36-5l.53-.69c5.58,4.32,12.67,6.63,30.74,4.84,6.92-.69,13.3-1.94,19.47-3.16C59.21,32.71,68,31,78.53,31c8.24,0,14,3.73,19,7,6.1,4,11.37,7.37,19.79,4.53l.28.83A19.13,19.13,0,0,1,111.41,44.45Z"/><path class="cls-71" d="M111.77,43.89c-5.35,0-9.58-2.65-14-5.41-5.31-3.33-10.8-6.77-19-6.49-9.9.34-18.55,1.9-26.92,3.41-6.68,1.2-13.58,2.44-21.14,3.08-17.06,1.44-25,.33-31.53-4.39l.52-.71C6,38,13.79,39,30.6,37.61,38.12,37,45,35.74,51.67,34.54c8.4-1.52,17.08-3.08,27-3.42,8.5-.29,14.36,3.38,19.53,6.62,6,3.75,11.17,7,19.19,4.29l.28.83A18.57,18.57,0,0,1,111.77,43.89Z"/><path class="cls-72" d="M112.13,43.34c-5.15,0-9.29-2.52-13.61-5.14C93.07,34.9,87.44,31.48,79,32.09c-9,.66-16.88,2-24.49,3.21-7.78,1.29-15.12,2.5-23.61,3.09C14.12,39.56,6,39.29-.84,34.63l.49-.72c6.64,4.51,14.62,4.76,31.14,3.61,8.44-.59,15.77-1.8,23.52-3.08s15.53-2.56,24.58-3.22c8.77-.63,14.78,3,20.08,6.23,5.87,3.56,11,6.64,18.58,4.07l.28.83A17.77,17.77,0,0,1,112.13,43.34Z"/><path class="cls-73" d="M112.49,42.78c-4.94,0-9-2.39-13.23-4.88-5.58-3.27-11.34-6.66-20.1-5.7-7.4.81-14,1.82-20.28,2.8A272,272,0,0,1,31,38.3c-16.51.91-24.8,1.36-31.85-3.13l.47-.74c6.56,4.18,13.89,4,31.33,3a271.42,271.42,0,0,0,27.78-3.3c6.34-1,12.89-2,20.32-2.8,9-1,15.2,2.63,20.63,5.82,5.75,3.38,10.72,6.3,18,3.86l.28.83A17,17,0,0,1,112.49,42.78Z"/><path class="cls-74" d="M112.85,42.22c-4.75,0-8.71-2.26-12.85-4.62C94.29,34.34,88.39,31,79.37,32.3c-4.1.6-7.92,1.19-11.61,1.76C55.23,36,44.41,37.68,31.18,38.21c-2.25.09-4.31.19-6.3.28-13,.6-19.52.9-25.71-2.78L-.38,35c6,3.55,12.4,3.25,25.22,2.66,2-.1,4.05-.19,6.31-.28,13.18-.53,24-2.2,36.48-4.14,3.69-.58,7.51-1.17,11.62-1.77,9.31-1.36,15.62,2.24,21.18,5.41s10.48,6,17.35,3.66l.28.83A16.29,16.29,0,0,1,112.85,42.22Z"/><path class="cls-75" d="M113.2,41.67c-4.55,0-8.42-2.15-12.46-4.39-5.84-3.23-11.87-6.57-21.16-4.88-19.47,3.54-31.66,5.3-48.23,5.72-4.05.11-7.58.28-10.7.44-9.9.5-15.88.8-21.47-2.31l.43-.77c5.36,3,10.92,2.72,21,2.21,3.12-.16,6.66-.34,10.72-.44,16.51-.42,28.67-2.18,48.1-5.71,9.59-1.75,16,1.82,21.73,5,5.49,3,10.23,5.66,16.74,3.47l.28.83A15.55,15.55,0,0,1,113.2,41.67Z"/><path class="cls-76" d="M113.56,41.11c-4.36,0-8.14-2-12.08-4.16-5.69-3.06-12.13-6.53-21.69-4.45A215.16,215.16,0,0,1,31.52,38c-5.34.06-9.7.34-13.55.58-8.19.53-13.61.87-18.78-1.82l.4-.78c5,2.58,10,2.26,18.33,1.73,3.86-.25,8.23-.53,13.59-.58a214.82,214.82,0,0,0,48.1-5.52c9.87-2.15,16.47,1.41,22.29,4.54,5.34,2.88,10,5.37,16.12,3.3l.28.83A14.78,14.78,0,0,1,113.56,41.11Z"/><path class="cls-77" d="M113.91,40.56c-4.17,0-7.85-1.93-11.69-4-5.81-3-12.39-6.5-22.22-4C61.71,37.21,49.38,38,31.69,37.94c-6.28,0-11.4.4-15.51.75-7.29.61-12.11,1-17-1.37l.38-.78C4.24,38.81,9,38.41,16.11,37.81c4.13-.34,9.26-.77,15.59-.74,17.61.07,29.88-.73,48.09-5.32,10.15-2.57,16.89,1,22.84,4.09,5.2,2.73,9.7,5.08,15.51,3.13l.28.83A14,14,0,0,1,113.91,40.56Z"/><path class="cls-78" d="M114.26,40c-4,0-7.56-1.83-11.3-3.74-5.93-3-12.64-6.46-22.75-3.57C61.66,38,49.57,38.19,31.86,37.85a125.8,125.8,0,0,0-16.92.94C8.51,39.48,3.87,40-.8,37.86l.36-.8c4.46,2,9,1.53,15.29.86a125.52,125.52,0,0,1,17-.94c17.63.34,29.66.16,48.09-5.13,10.44-3,17.32.53,23.39,3.63,5.06,2.59,9.42,4.82,14.9,3l.28.82A13.07,13.07,0,0,1,114.26,40Z"/><path class="cls-79" d="M6,39.68A17,17,0,0,1-.8,38.4l.34-.81c4.31,1.82,8.54,1.25,14.4.46a100.76,100.76,0,0,1,18.12-1.16l1.1,0c16.53.56,28.47,1,47-5,10.73-3.44,17.75.07,23.94,3.16,4.9,2.45,9.14,4.56,14.29,2.82l.28.83c-5.5,1.86-10.1-.44-15-2.87-6-3-12.9-6.44-23.28-3.11-18.67,6-30.67,5.58-47.29,5l-1.1,0a100.21,100.21,0,0,0-18,1.16A64.22,64.22,0,0,1,6,39.68Z"/><path class="cls-80" d="M5.19,40a15.91,15.91,0,0,1-6-1.07l.32-.81c4.2,1.65,8.2,1,13.74.08a83.75,83.75,0,0,1,19-1.4l3.45.17c15,.77,26.88,1.38,44.65-4.9,11-3.9,18.16-.41,24.48,2.68,4.74,2.31,8.84,4.31,13.68,2.68l.27.83c-5.17,1.75-9.62-.43-14.34-2.73-6.16-3-13.14-6.41-23.8-2.64-17.93,6.34-29.87,5.73-45,5l-3.44-.18a83.39,83.39,0,0,0-18.78,1.39A51.93,51.93,0,0,1,5.19,40Z"/><path class="cls-81" d="M4.5,40.36a15.22,15.22,0,0,1-5.28-.89l.29-.82c4.13,1.5,8.17.71,13.27-.29a71.44,71.44,0,0,1,19.64-1.65c1.71.11,3.37.22,5,.34,14.43,1,25.83,1.8,43.12-4.88,11.3-4.37,18.59-.88,25,2.19,4.59,2.2,8.55,4.09,13.07,2.56l.28.83c-4.86,1.64-9.17-.42-13.73-2.6-6.27-3-13.37-6.39-24.32-2.16-17.47,6.75-29,5.95-43.5,4.93l-5-.34A70.79,70.79,0,0,0,13,39.22,45,45,0,0,1,4.5,40.36Z"/><path class="cls-82" d="M3.93,40.76A14.67,14.67,0,0,1-.78,40l.28-.83c4.08,1.37,8,.48,12.92-.64a62.43,62.43,0,0,1,20.19-1.92c2.08.16,4.1.34,6,.52,14,1.26,25.07,2.25,42-4.86C92.3,27.42,100,31.05,106.26,34c4.42,2.08,8.24,3.87,12.47,2.44l.28.83c-4.56,1.54-8.53-.32-13.12-2.48-6.38-3-13.61-6.38-24.85-1.67C63.86,40.28,52.71,39.28,38.58,38l-6-.52A61.57,61.57,0,0,0,12.61,39.4,40.6,40.6,0,0,1,3.93,40.76Z"/><path class="cls-83" d="M3.42,41.16a13.82,13.82,0,0,1-4.19-.62l.26-.83c4.05,1.26,7.85.27,12.66-1,5.2-1.35,11.67-3,20.64-2.2,2.37.22,4.64.47,6.84.71,13.68,1.51,24.49,2.7,41.26-4.85C92.78,27,100.65,30.66,107,33.57c4.25,2,7.93,3.66,11.87,2.33l.28.83c-4.27,1.44-8.09-.32-12.52-2.36-6.48-3-13.83-6.38-25.36-1.19-17,7.66-27.9,6.46-41.71,4.93-2.2-.24-4.47-.49-6.83-.71-8.82-.82-15.21.84-20.34,2.18A36.32,36.32,0,0,1,3.42,41.16Z"/><path class="cls-84" d="M3,41.59a13.6,13.6,0,0,1-3.75-.51l.24-.85c4.05,1.16,7.77.07,12.48-1.31,5.28-1.54,11.85-3.47,21-2.48,2.6.28,5.07.61,7.46.92,13.41,1.76,24,3.15,40.64-4.87,12.2-5.87,20.19-2.24,26.62.68,4.09,1.85,7.62,3.46,11.28,2.22l.28.83c-4,1.34-7.67-.32-11.92-2.25-6.59-3-14-6.38-25.88-.69C64.59,41.41,53.87,40,40.31,38.23c-2.38-.32-4.85-.64-7.43-.92-9-1-15.21.85-20.69,2.45C8.91,40.72,6,41.59,3,41.59Z"/><path class="cls-85" d="M2.6,42a13.07,13.07,0,0,1-3.36-.43l.22-.85c4.05,1.07,7.89-.19,12.35-1.64,5.35-1.74,12-3.91,21.34-2.77,2.78.34,5.4.74,7.94,1.13,13.2,2,23.63,3.6,40.17-4.88,12.49-6.4,20.61-2.76,27.14.16,3.91,1.75,7.29,3.26,10.69,2.12l.28.83c-3.72,1.25-7.25-.33-11.33-2.15-6.35-2.85-14.26-6.39-26.38-.18C64.86,42,53.79,40.3,41,38.35c-2.53-.39-5.15-.79-7.91-1.13-9.15-1.12-15.43.93-21,2.73C8.71,41.05,5.68,42,2.6,42Z"/><path class="cls-86" d="M2.26,42.5a12.64,12.64,0,0,1-3-.36l.2-.85c4.07,1,7.87-.39,12.28-2,5.41-1.94,12.14-4.36,21.62-3.06,2.92.41,5.67.88,8.33,1.35,13,2.26,23.29,4,39.78-4.9,12.79-6.95,21-3.3,27.65-.37,3.74,1.65,7,3.09,10.11,2l.28.83c-3.46,1.16-6.84-.33-10.75-2.06-6.44-2.85-14.46-6.4-26.88.34-9.61,5.21-17.3,6.81-24.5,6.81a91.36,91.36,0,0,1-15.84-1.82c-2.66-.46-5.4-.94-8.3-1.34-9.27-1.27-15.61,1-21.21,3C8.55,41.38,5.45,42.5,2.26,42.5Z"/><path class="cls-87" d="M2,43a12.69,12.69,0,0,1-2.71-.29l.19-.86c4.09.89,7.86-.59,12.23-2.3,5.75-2.26,12.26-4.81,21.86-3.35,3,.47,5.9,1,8.65,1.57,12.85,2.51,23,4.5,39.46-4.92,13.11-7.51,21.46-3.85,28.17-.91,3.56,1.57,6.64,2.92,9.52,1.95l.28.83c-3.2,1.08-6.42-.34-10.16-2-6.52-2.87-14.65-6.43-27.37.86-16.75,9.58-27.55,7.47-40.06,5-2.75-.54-5.6-1.1-8.62-1.56C24,35.61,17.63,38.12,12,40.33,8.43,41.73,5.26,43,2,43Z"/><path class="cls-88" d="M1.67,43.45a12.56,12.56,0,0,1-2.42-.24l.17-.86c4.11.81,7.87-.78,12.22-2.63C17.43,37.26,24,34.46,33.7,36.09c3.15.52,6.09,1.16,8.93,1.78,12.7,2.77,22.74,5,39.19-4.95,13.42-8.07,22.23-4.24,28.67-1.43,3.53,1.53,6.31,2.75,9,1.86l.28.83c-3,1-6-.34-9.58-1.89-6.61-2.88-14.84-6.46-27.87,1.38-16.75,10.09-27.45,7.76-39.83,5.06-2.83-.62-5.76-1.26-8.88-1.78C24.11,35.37,17.67,38.11,12,40.52,8.34,42.07,5.1,43.45,1.67,43.45Z"/><path class="cls-89" d="M1.41,43.94a12.29,12.29,0,0,1-2.16-.19l.16-.87c4.15.74,7.89-1,12.23-3C17.48,37.24,24.1,34.21,33.88,36c3.24.59,6.25,1.31,9.16,2,12.08,2.9,22.51,5.41,39-5,13.73-8.66,22.65-4.8,29.16-2,3.35,1.45,6,2.6,8.39,1.79l.28.83c-2.72.91-5.64-.35-9-1.81-6.33-2.75-15-6.51-28.35,1.91-16.77,10.58-27.36,8-39.63,5.09-2.9-.7-5.9-1.42-9.12-2-9.5-1.74-16,1.23-21.72,3.85C8.27,42.42,5,43.94,1.41,43.94Z"/><path class="cls-90" d="M1.12,44.42a11.65,11.65,0,0,1-1.86-.14l.13-.86c4.2.66,7.94-1.18,12.27-3.3,5.88-2.89,12.55-6.15,22.4-4.21,3.32.65,6.39,1.46,9.36,2.24,12,3.14,22.29,5.86,38.77-5,14.06-9.27,23.07-5.37,29.66-2.52,3.16,1.36,5.65,2.44,7.83,1.71l.28.83c-2.5.84-5.26-.36-8.46-1.74-6.4-2.77-15.17-6.56-28.82,2.45-9.13,6-16.4,8-23.09,8C54,41.83,48.76,40.46,43.2,39c-3-.78-6-1.58-9.31-2.23-9.56-1.89-16.08,1.31-21.84,4.13C8.37,42.71,4.86,44.42,1.12,44.42Z"/><path class="cls-91" d="M.89,44.92a11.26,11.26,0,0,1-1.63-.11L-.62,44c4.24.59,8-1.37,12.32-3.64,5.92-3.09,12.63-6.59,22.55-4.49,3.38.72,6.51,1.61,9.53,2.47,11.85,3.39,22.09,6.31,38.6-5,6.36-4.37,12.25-6.43,18-6.3,4.93.12,8.92,1.84,12.12,3.23,3,1.28,5.32,2.3,7.28,1.64l.28.83c-2.28.76-4.76-.31-7.91-1.67-6.46-2.79-15.31-6.62-29.29,3C66,45.55,55.61,42.58,43.54,39.13c-3-.85-6.12-1.74-9.48-2.45-9.6-2-16.16,1.39-22,4.41C8.35,43.05,4.77,44.92.89,44.92Z"/><path class="cls-92" d="M.67,45.43a13.63,13.63,0,0,1-1.41-.08l.11-.87c4.29.52,8.05-1.56,12.39-4,6-3.3,12.7-7,22.67-4.78,3.45.78,6.62,1.76,9.68,2.71C55.87,42.06,66,45.19,82.57,33.35c14.71-10.52,24.28-6.36,30.62-3.61,2.78,1.2,5,2.16,6.73,1.57l.28.82c-2.08.7-4.41-.31-7.36-1.59-6.52-2.83-15.46-6.71-29.76,3.52-9,6.45-16.15,8.55-22.68,8.55-5.71,0-10.95-1.61-16.54-3.34-3-.94-6.21-1.91-9.63-2.69-9.64-2.18-16.23,1.47-22,4.69C8.34,43.41,4.69,45.43.67,45.43Z"/><path class="cls-93" d="M.47,45.94q-.6,0-1.2-.06L-.64,45c4.35.45,8.11-1.76,12.47-4.31,6-3.51,12.77-7.48,22.78-5.06,3.51.85,6.72,1.91,9.82,2.94,11.66,3.87,21.74,7.2,38.33-5.12,15-11.17,24.7-7,31.09-4.17,2.59,1.13,4.63,2,6.18,1.5l.28.83c-1.87.64-4-.32-6.81-1.52-6.21-2.71-15.58-6.81-30.22,4.06-17,12.6-27.23,9.19-39.12,5.25-3.09-1-6.29-2.08-9.76-2.92-9.66-2.33-16.28,1.54-22.13,5C8.35,43.76,4.62,45.94.47,45.94Z"/><path class="cls-94" d="M.28,46.46c-.33,0-.67,0-1-.05l.07-.87c4.42.38,8.38-2.06,12.58-4.65,6-3.71,12.82-7.91,22.87-5.34,3.56.92,6.8,2.07,9.94,3.18C56.31,42.83,66.3,46.38,83,33.57c6.77-5.22,13-7.78,19.17-7.84,5.2,0,9.18,1.71,12.38,3.12,2.4,1.06,4.29,1.89,5.65,1.43l.28.83c-1.68.57-3.71-.32-6.28-1.46-6.25-2.75-15.69-6.92-30.67,4.61-8.93,6.88-16,9.15-22.38,9.15-5.8,0-11.05-1.86-16.66-3.85-3.12-1.11-6.35-2.25-9.87-3.16-9.68-2.48-16.33,1.62-22.2,5.23C8.37,44.11,4.56,46.46.28,46.46Z"/><path class="cls-95" d="M.1,47c-.28,0-.55,0-.83,0l.06-.87c4.48.32,8.46-2.26,12.68-5,6-3.92,12.88-8.35,23-5.61A105.48,105.48,0,0,1,45,38.88C56.51,43.22,66.44,47,83.14,33.67c15.74-12.53,25.93-8,32-5.26,2.2,1,3.94,1.76,5.12,1.36l.28.83c-1.5.51-3.38-.33-5.76-1.39C108.51,26.4,99,22.15,83.68,34.36,66.59,48,56.45,44.14,44.71,39.7c-3.15-1.19-6.41-2.42-10-3.39C25,33.68,18.37,38,12.48,41.81,8.39,44.46,4.52,47,.1,47Z"/><path class="cls-96" d="M-.08,47.49H-.73l0-.88c4.55.25,8.55-2.46,12.79-5.34,6.06-4.11,12.94-8.78,23-5.88A102.58,102.58,0,0,1,45.3,39c11.41,4.58,21.27,8.54,38-5.25,16.11-13.25,26.34-8.59,32.46-5.81,2,.91,3.6,1.63,4.6,1.29l.28.83c-1.33.45-3-.3-5.24-1.33-5.93-2.69-15.86-7.2-31.55,5.7C75,41.77,68,44.21,61.71,44.21c-5.86,0-11.11-2.11-16.74-4.37a102.6,102.6,0,0,0-10.06-3.62C25.2,33.44,18.8,37.78,12.6,42,8.43,44.81,4.48,47.49-.08,47.49Z"/><path class="cls-97" d="M-.25,48H-.73l0-.88c4.61.19,8.64-2.67,12.91-5.69,6.09-4.31,13-9.2,23.12-6.15a98.24,98.24,0,0,1,10.23,3.89c11.8,5,21.12,9,37.95-5.29,7.12-6,14-9.22,20.4-9.45,5.45-.19,9.53,1.7,12.51,3.09,1.81.84,3.24,1.5,4.08,1.22l.28.83c-1.17.39-2.66-.3-4.73-1.26-6-2.76-15.92-7.39-32,6.24C66.85,49.18,56.83,44.92,45.22,40a95.17,95.17,0,0,0-10.14-3.86c-9.72-2.93-16.14,1.62-22.35,6C8.47,45.17,4.45,48-.25,48Z"/><path class="cls-98" d="M-.42,48.54h-.3l0-.87c4.68.12,8.74-2.88,13-6.05,6.11-4.51,13-9.63,23.18-6.42a94.63,94.63,0,0,1,10.31,4.14c11.72,5.26,21,9.42,37.88-5.35s27.59-9.64,33.35-6.9c1.61.77,2.89,1.38,3.57,1.15l.28.83c-1,.34-2.36-.3-4.23-1.19-5.57-2.65-16-7.6-32.39,6.77C75.41,42.41,68.47,45,62.25,45c-5.91,0-11.16-2.35-16.78-4.88A94.6,94.6,0,0,0,35.25,36C25.53,33,19.09,37.72,12.86,42.32,8.53,45.52,4.43,48.54-.42,48.54Z"/><path class="cls-99" d="M-.58,49.07H-.72V48.2h.13c4.7,0,8.75-3.11,13-6.41,6.13-4.71,13.08-10,23.24-6.68a92.48,92.48,0,0,1,10.38,4.38C57.73,45,66.94,49.35,83.9,34.1c17.29-15.55,28.43-10.07,33.78-7.44,1.36.67,2.54,1.25,3.06,1.07l.28.83c-.86.29-2-.27-3.72-1.11-5.58-2.75-16-7.85-32.81,7.3-8.88,8-15.81,10.67-22,10.67-5.94,0-11.19-2.48-16.81-5.14a90.43,90.43,0,0,0-10.28-4.34C25.7,32.72,19.24,37.69,13,42.49,8.58,45.87,4.41,49.07-.58,49.07Z"/><path class="cls-100" d="M-.72,49.61v-.88c4.83,0,9-3.29,13.31-6.77C18.74,37.06,25.71,31.5,35.88,35a88.74,88.74,0,0,1,10.44,4.62C57.91,45.4,67.05,50,84.09,34.21c7.62-7,14.94-10.78,21.76-11.12a23.32,23.32,0,0,1,12.45,3.15c1.12.57,2.18,1.11,2.56,1l.28.83c-.73.25-1.73-.26-3.23-1-5.18-2.64-15.94-8.14-33.23,7.83-8.87,8.2-15.78,11-21.93,11-6,0-11.2-2.6-16.82-5.39a86,86,0,0,0-10.34-4.58c-9.71-3.36-16.19,1.8-22.46,6.8C8.65,46.22,4.42,49.6-.72,49.61Z"/><path class="cls-101" d="M-.72,50.14v-.88c4.91-.07,9.06-3.5,13.45-7.13,6.17-5.1,13.16-10.87,23.34-7.19a84.74,84.74,0,0,1,10.5,4.86c5.55,2.89,10.8,5.63,16.66,5.55,6.51-.08,13.2-3.58,21.06-11C102.49,17.05,114,23.2,118.92,25.83a6,6,0,0,0,2.06.88l.28.83c-.61.2-1.42-.23-2.75-.94-4.75-2.54-15.87-8.48-33.63,8.35C67.32,51.6,57.51,46.49,46.16,40.58a85.19,85.19,0,0,0-10.4-4.82c-9.71-3.51-16.2,1.86-22.48,7C8.76,46.54,4.5,50.06-.72,50.14Z"/><path class="cls-102" d="M-.72,50.67l0-.88c5-.13,9.17-3.71,13.6-7.5C19.35,36.75,26.05,31,36.24,34.85A82.74,82.74,0,0,1,46.8,40c5.52,3,10.73,5.85,16.58,5.8,6.49-.06,13.2-3.66,21.09-11.34,18.73-18.21,30.6-11.51,35.06-9a6.41,6.41,0,0,0,1.59.76l.26.84c-.5.17-1.13-.19-2.28-.84-4.31-2.43-15.76-8.9-34,8.86C76.19,43.69,69.3,46.63,63.21,46.64S52,43.78,46.38,40.73a81.64,81.64,0,0,0-10.45-5.06C26.23,32,19.72,37.58,13.43,43,8.88,46.85,4.58,50.52-.72,50.67Z"/><path class="cls-103" d="M-.72,51.2l0-.87c5.06-.2,9.28-3.93,13.75-7.88,6.51-5.74,13.23-11.67,23.42-7.69A80.91,80.91,0,0,1,47,40.12c5.45,3.11,10.61,6.05,16.4,6.05h.1c6.49,0,13.2-3.74,21.13-11.64,19.33-19.25,31.49-11.89,35.48-9.48a6.18,6.18,0,0,0,1.16.63.13.13,0,0,0-.08,0l.28.83c-.4.13-.84-.13-1.81-.72-3.85-2.33-15.57-9.41-34.41,9.35C67.54,52.82,57.83,47.28,46.59,40.88a77.34,77.34,0,0,0-10.49-5.3c-9.69-3.79-16.21,2-22.52,7.53C9,47.16,4.66,51-.72,51.2Z"/><path class="cls-104" d="M-.72,51.73l0-.87c5.15-.27,9.4-4.14,13.91-8.25,6.52-5.94,13.26-12.08,23.45-7.94a79.14,79.14,0,0,1,10.65,5.6c5.45,3.24,10.59,6.3,16.39,6.3h0c6.47,0,13.19-3.81,21.17-11.94C93.34,26,101.45,21.45,109,21.16a19.17,19.17,0,0,1,11.81,3.55,5.75,5.75,0,0,0,.74.45.25.25,0,0,0-.16,0l.28.83c-.32.1-.6-.08-1.35-.57A18.39,18.39,0,0,0,109,22c-7.27.29-15.18,4.73-23.5,13.22-8.92,9.09-15.8,12.2-21.84,12.2S52.4,44.35,46.81,41a78.8,78.8,0,0,0-10.54-5.55c-9.68-3.93-16.21,2-22.53,7.78C9.11,47.47,4.74,51.45-.72,51.73Z"/><path class="cls-105" d="M-.72,52.26l-.05-.87C4.46,51.06,8.75,47,13.3,42.77c6.53-6.14,13.29-12.48,23.48-8.18a77.28,77.28,0,0,1,10.7,5.84C52.91,43.8,58,47,63.84,47h0C70.3,47,77,43.09,85.05,34.74,98.56,20.65,111.46,17,121.37,24.42l.36.25a.34.34,0,0,0-.27,0l.27.83c-.26.08-.41,0-.88-.38-9.51-7.14-22-3.51-35.17,10.23C67.76,54,58.15,48.08,47,41.18a76.28,76.28,0,0,0-10.58-5.79c-9.67-4.07-16.21,2.07-22.54,8C9.23,47.78,4.83,51.91-.72,52.26Z"/><path class="cls-106" d="M-.72,52.8l-.06-.88c5.31-.39,9.64-4.57,14.23-9C20,36.59,26.77,30.05,37,34.5A76.52,76.52,0,0,1,47.7,40.59c5.4,3.49,10.5,6.78,16.29,6.8h.06c6.43,0,13.16-4,21.19-12.54,9.15-9.75,17.83-14.7,25.8-14.7h0a15.42,15.42,0,0,1,11,4.12l-.64.6A14.84,14.84,0,0,0,111.05,21c-7.73,0-16.2,4.85-25.17,14.41S70.05,48.26,64.05,48.26s-11.26-3.34-16.83-6.93a73.9,73.9,0,0,0-10.6-6C27,31.09,20.4,37.42,14.06,43.55,9.36,48.09,4.91,52.38-.72,52.8Z"/><path class="cls-107" d="M-1.81-23.19c13.35-9.15,25.12-6.08,37.89.84,10.92,5.92,21.5,15,33.74,15.8s22.88-3.56,33.63,2.49c14.42,8.12,15.18,23.48,8.82,34.94-8.82,15.88-26.46,17.26-39.71,9.39-11-6.51-22-13.78-39-10.92C21,31.47,10.6,43.58-2.54,37.46-17.45,30.53-26.51-6.29-1.81-23.19Z"/><g class="cls-108"><path class="cls-109" d="M70.71,20.5a.11.11,0,0,1-.08,0,.12.12,0,0,1,0-.16L87.25,3.69a.11.11,0,0,1,.16.16L70.79,20.47A.11.11,0,0,1,70.71,20.5Z"/></g><g class="cls-108"><path class="cls-110" d="M32.79,61.62a.09.09,0,0,1-.08,0,.1.1,0,0,1,0-.16L56.86,37.27a.12.12,0,0,1,.17,0,.12.12,0,0,1,0,.16L32.87,61.58A.09.09,0,0,1,32.79,61.62Z"/></g><g class="cls-108"><path class="cls-111" d="M27.33,23.73a.11.11,0,0,1-.08,0,.1.1,0,0,1,0-.16L38.48,12.31a.11.11,0,1,1,.16.16L27.41,23.7A.11.11,0,0,1,27.33,23.73Z"/></g><g class="cls-108"><path class="cls-112" d="M82.41,45.73l-.09,0a.12.12,0,0,1,0-.16l24.93-24.93a.12.12,0,0,1,.16,0,.12.12,0,0,1,0,.17L82.49,45.7A.13.13,0,0,1,82.41,45.73Z"/></g><g class="cls-108"><path class="cls-113" d="M3.79,55.27a.11.11,0,0,1-.08,0,.12.12,0,0,1,0-.17l9.54-9.53a.11.11,0,0,1,.16.16L3.87,55.24A.11.11,0,0,1,3.79,55.27Z"/></g><g class="cls-108"><path class="cls-114" d="M14.1,13.73a.11.11,0,0,1-.08,0,.1.1,0,0,1,0-.16l18-18a.1.1,0,0,1,.16,0,.12.12,0,0,1,0,.16l-18,18A.11.11,0,0,1,14.1,13.73Z"/></g></g></g></g></svg>